<?xml version="1.0" standalone="no"?><!-- Generator: Gravit.io --><svg xmlns="http://www.w3.org/2000/svg" xmlns:xlink="http://www.w3.org/1999/xlink" style="isolation:isolate" viewBox="484 757 1024 719.425" width="1024" height="719.425"><g id="Follow me"><path d=" M 803.785 808.536 C 803.785 808.536 824.296 796.632 835.798 791.485 L 1014.682 857.279 L 1304.002 865.081 C 1304.002 865.081 1325.719 887.603 1332.153 895.324 L 1384.677 1046.057 L 1427.065 1063.028 C 1427.065 1063.028 1436.798 1092.145 1439.532 1103.165 L 1430.765 1172.66 L 1011.384 1276.66 L 674.609 1194.055 L 675.654 987.019 L 778.609 852.936 L 803.785 808.536 Z " fill="rgb(47,47,47)"/><g id="Follow me"><g id="Follow me"><path d=" M 1069.538 983.399 C 1068.733 1024.099 1066.481 1141.049 1067.286 1208.935 C 1080.718 1209.257 1095.437 1208.533 1111.685 1206.844 C 1133.402 1204.672 1156.084 1200.329 1177.962 1196.146 L 1191.877 1193.492 C 1214.318 1189.229 1235.07 1183.92 1255.339 1177.244 C 1286.628 1166.949 1321.214 1153.677 1352.423 1134.454 C 1329.499 1054.583 1288.398 994.66 1275.206 976.723 C 1186.729 969.725 1101.952 979.056 1069.538 983.399 Z " fill="rgb(117,127,63)"/><clipPath id="_clipPath_DWMg9y4gOGQcMtnBTgskitXRI3OfGqNb"><path d=" M 1069.538 983.399 C 1068.733 1024.099 1066.481 1141.049 1067.286 1208.935 C 1080.718 1209.257 1095.437 1208.533 1111.685 1206.844 C 1133.402 1204.672 1156.084 1200.329 1177.962 1196.146 L 1191.877 1193.492 C 1214.318 1189.229 1235.07 1183.92 1255.339 1177.244 C 1286.628 1166.949 1321.214 1153.677 1352.423 1134.454 C 1329.499 1054.583 1288.398 994.66 1275.206 976.723 C 1186.729 969.725 1101.952 979.056 1069.538 983.399 Z " fill="rgb(117,127,63)"/></clipPath><g clip-path="url(#_clipPath_DWMg9y4gOGQcMtnBTgskitXRI3OfGqNb)"><clipPath id="_clipPath_AgXq7wUDGq65vnI0SCQrsexG0rzOQlBz"><rect x="689" y="755" width="761" height="557" transform="matrix(-1,0,0,-1,2139,2067)" fill="rgb(255,255,255)"/></clipPath><g clip-path="url(#_clipPath_AgXq7wUDGq65vnI0SCQrsexG0rzOQlBz)"><rect x="689" y="756.173" width="761" height="278.5" transform="matrix(-1,0,0,-1,2139,1790.846)" fill="rgb(255,255,255)"/><rect x="689" y="1033.5" width="761" height="278.5" transform="matrix(-1,0,0,-1,2139,2345.5)" fill="rgb(0,102,0)"/></g></g><path d=" M 1304.726 958.867 C 1320.41 980.343 1358.053 1037.129 1382.022 1113.46 C 1399.557 1098.902 1414.678 1081.528 1426.261 1061.018 C 1415.483 1031.016 1402.452 1001.899 1386.848 974.149 C 1371.164 946.319 1352.905 919.696 1332.234 895.244 C 1324.593 920.259 1312.447 944.711 1304.726 958.867 Z " fill="rgb(117,127,63)"/><clipPath id="_clipPath_7JmCn2Webga3cihRo0QRBeAYvDKohQvr"><path d=" M 1304.726 958.867 C 1320.41 980.343 1358.053 1037.129 1382.022 1113.46 C 1399.557 1098.902 1414.678 1081.528 1426.261 1061.018 C 1415.483 1031.016 1402.452 1001.899 1386.848 974.149 C 1371.164 946.319 1352.905 919.696 1332.234 895.244 C 1324.593 920.259 1312.447 944.711 1304.726 958.867 Z " fill="rgb(117,127,63)"/></clipPath><g clip-path="url(#_clipPath_7JmCn2Webga3cihRo0QRBeAYvDKohQvr)"><clipPath id="_clipPath_RizipEEfGo1RLGpIz5ETvSYIqfZgfZTy"><rect x="689" y="755" width="761" height="557" transform="matrix(-1,0,0,-1,2139,2067)" fill="rgb(255,255,255)"/></clipPath><g clip-path="url(#_clipPath_RizipEEfGo1RLGpIz5ETvSYIqfZgfZTy)"><rect x="689" y="756.173" width="761" height="278.5" transform="matrix(-1,0,0,-1,2139,1790.846)" fill="rgb(255,255,255)"/><rect x="689" y="1033.5" width="761" height="278.5" transform="matrix(-1,0,0,-1,2139,2345.5)" fill="rgb(0,102,0)"/></g></g><path d=" M 844.806 847.627 C 879.071 860.738 996.423 907.389 1057.07 950.421 C 1083.211 946.561 1175.227 934.656 1274.563 942.217 C 1287.432 918.489 1300.945 886.638 1303.921 865.001 C 1302.715 863.794 1301.669 862.507 1300.463 861.381 C 1259.2 822.612 1206.918 801.297 1154.154 783.441 C 1080.477 758.507 1000.284 749.739 923.47 763.494 C 893.066 768.963 863.708 778.374 835.798 791.485 L 844.806 847.627 Z " fill="rgb(117,127,63)"/><clipPath id="_clipPath_BjPMRbAoLUdV3LhbI8HT2SBooYUuSLsF"><path d=" M 844.806 847.627 C 879.071 860.738 996.423 907.389 1057.07 950.421 C 1083.211 946.561 1175.227 934.656 1274.563 942.217 C 1287.432 918.489 1300.945 886.638 1303.921 865.001 C 1302.715 863.794 1301.669 862.507 1300.463 861.381 C 1259.2 822.612 1206.918 801.297 1154.154 783.441 C 1080.477 758.507 1000.284 749.739 923.47 763.494 C 893.066 768.963 863.708 778.374 835.798 791.485 L 844.806 847.627 Z " fill="rgb(117,127,63)"/></clipPath><g clip-path="url(#_clipPath_BjPMRbAoLUdV3LhbI8HT2SBooYUuSLsF)"><clipPath id="_clipPath_NXHyRgLro7gFjnXRdU79Ckrdwo30w4qH"><rect x="689" y="755" width="761" height="557" transform="matrix(-1,0,0,-1,2139,2067)" fill="rgb(255,255,255)"/></clipPath><g clip-path="url(#_clipPath_NXHyRgLro7gFjnXRdU79Ckrdwo30w4qH)"><rect x="689" y="756.173" width="761" height="278.5" transform="matrix(-1,0,0,-1,2139,1790.846)" fill="rgb(255,255,255)"/><rect x="689" y="1033.5" width="761" height="278.5" transform="matrix(-1,0,0,-1,2139,2345.5)" fill="rgb(0,102,0)"/></g></g><path d=" M 1439.291 1103.406 C 1423.285 1123.917 1403.9 1140.969 1383.148 1155.125 C 1382.746 1155.447 1382.264 1155.688 1381.942 1156.01 C 1343.816 1181.749 1301.267 1198.318 1266.117 1209.82 C 1244.4 1216.978 1222.281 1222.689 1198.312 1227.194 L 1184.397 1229.848 C 1161.715 1234.191 1138.389 1238.696 1115.144 1241.109 C 1101.389 1242.476 1087.313 1243.602 1073.077 1243.602 C 1030.608 1243.602 987.978 1233.628 956.85 1191.079 C 944.302 1173.786 930.307 1159.227 915.427 1147.806 L 909.233 1142.979 C 899.823 1135.499 882.208 1121.504 873.119 1121.262 L 874.004 1086.917 C 894.595 1087.48 915.427 1103.969 930.629 1116.034 L 936.259 1120.458 C 953.713 1133.81 970.041 1150.701 984.6 1170.729 C 997.71 1188.666 1013.717 1198.881 1032.94 1204.27 C 1032.297 1131.719 1034.629 1011.068 1035.353 977.125 C 976.476 935.943 858.078 889.292 829.845 878.514 C 818.746 885.351 790.111 909.159 756.41 943.504 C 753.031 946.963 748.527 948.652 744.103 948.652 C 739.76 948.652 735.416 947.043 732.119 943.745 C 725.362 937.15 725.201 926.291 731.877 919.454 C 753.192 897.818 786.974 865.081 810.622 850.442 L 803.785 808.456 C 746.194 842.882 689.328 896.29 655.144 958.384 C 620.879 1020.399 609.296 1090.939 641.952 1159.227 C 652.65 1181.346 674.126 1218.507 695.682 1231.376 C 714.745 1242.798 734.934 1252.53 755.525 1261.056 C 773.783 1268.617 789.226 1278.108 807.967 1283.577 C 824.698 1288.564 841.991 1293.953 858.962 1297.734 C 876.095 1301.595 893.871 1302.801 911.083 1306.018 C 926.366 1308.834 941.809 1311.408 957.252 1311.649 C 1036.479 1312.694 1116.591 1316.877 1194.371 1298.056 C 1241.666 1286.634 1288.558 1272.397 1333.038 1252.771 C 1355.56 1242.958 1377.518 1231.698 1398.189 1218.507 C 1415 1207.889 1437.119 1197.433 1445.887 1178.451 C 1455.136 1158.423 1447.254 1134.212 1442.348 1113.943 C 1441.463 1110.565 1440.256 1106.945 1439.291 1103.406 Z " fill="rgb(117,127,63)"/><clipPath id="_clipPath_DpWoEaBsKnTwuTkuy55AzEWJBRjiMhHC"><path d=" M 1439.291 1103.406 C 1423.285 1123.917 1403.9 1140.969 1383.148 1155.125 C 1382.746 1155.447 1382.264 1155.688 1381.942 1156.01 C 1343.816 1181.749 1301.267 1198.318 1266.117 1209.82 C 1244.4 1216.978 1222.281 1222.689 1198.312 1227.194 L 1184.397 1229.848 C 1161.715 1234.191 1138.389 1238.696 1115.144 1241.109 C 1101.389 1242.476 1087.313 1243.602 1073.077 1243.602 C 1030.608 1243.602 987.978 1233.628 956.85 1191.079 C 944.302 1173.786 930.307 1159.227 915.427 1147.806 L 909.233 1142.979 C 899.823 1135.499 882.208 1121.504 873.119 1121.262 L 874.004 1086.917 C 894.595 1087.48 915.427 1103.969 930.629 1116.034 L 936.259 1120.458 C 953.713 1133.81 970.041 1150.701 984.6 1170.729 C 997.71 1188.666 1013.717 1198.881 1032.94 1204.27 C 1032.297 1131.719 1034.629 1011.068 1035.353 977.125 C 976.476 935.943 858.078 889.292 829.845 878.514 C 818.746 885.351 790.111 909.159 756.41 943.504 C 753.031 946.963 748.527 948.652 744.103 948.652 C 739.76 948.652 735.416 947.043 732.119 943.745 C 725.362 937.15 725.201 926.291 731.877 919.454 C 753.192 897.818 786.974 865.081 810.622 850.442 L 803.785 808.456 C 746.194 842.882 689.328 896.29 655.144 958.384 C 620.879 1020.399 609.296 1090.939 641.952 1159.227 C 652.65 1181.346 674.126 1218.507 695.682 1231.376 C 714.745 1242.798 734.934 1252.53 755.525 1261.056 C 773.783 1268.617 789.226 1278.108 807.967 1283.577 C 824.698 1288.564 841.991 1293.953 858.962 1297.734 C 876.095 1301.595 893.871 1302.801 911.083 1306.018 C 926.366 1308.834 941.809 1311.408 957.252 1311.649 C 1036.479 1312.694 1116.591 1316.877 1194.371 1298.056 C 1241.666 1286.634 1288.558 1272.397 1333.038 1252.771 C 1355.56 1242.958 1377.518 1231.698 1398.189 1218.507 C 1415 1207.889 1437.119 1197.433 1445.887 1178.451 C 1455.136 1158.423 1447.254 1134.212 1442.348 1113.943 C 1441.463 1110.565 1440.256 1106.945 1439.291 1103.406 Z " fill="rgb(117,127,63)"/></clipPath><g clip-path="url(#_clipPath_DpWoEaBsKnTwuTkuy55AzEWJBRjiMhHC)"><clipPath id="_clipPath_cvJgaJ7EVSiOe8bP5llSTKXyHMnpZedw"><rect x="689" y="755" width="761" height="557" transform="matrix(-1,0,0,-1,2139,2067)" fill="rgb(255,255,255)"/></clipPath><g clip-path="url(#_clipPath_cvJgaJ7EVSiOe8bP5llSTKXyHMnpZedw)"><rect x="689" y="756.173" width="761" height="278.5" transform="matrix(-1,0,0,-1,2139,1790.846)" fill="rgb(255,255,255)"/><rect x="689" y="1033.5" width="761" height="278.5" transform="matrix(-1,0,0,-1,2139,2345.5)" fill="rgb(0,102,0)"/></g></g></g><g id="Group"><path d=" M 722.145 1295.482 C 714.262 1290.817 703.002 1289.208 687.719 1287.036 C 667.611 1284.221 645.733 1278.591 625.624 1282.21 C 608.331 1285.347 606.481 1289.771 600.851 1305.777 C 592.084 1330.953 566.586 1406.4 586.373 1430.208 C 591.279 1436.08 602.701 1438.171 609.699 1440.262 C 629.887 1446.375 651.363 1447.743 672.598 1449.19 C 690.695 1450.397 708.552 1447.099 725.845 1442.273 C 738.795 1438.654 744.505 1435.597 745.551 1421.28 C 747.884 1390.715 741.047 1360.552 738.312 1330.229 C 736.382 1310.603 731.556 1300.951 722.145 1295.482 Z " fill="rgb(189,207,70)"/><g id="Group"><path d=" M 1420.55 1204.833 C 1413.07 1209.82 1405.107 1214.244 1398.109 1218.668 C 1377.438 1231.778 1355.479 1243.039 1332.958 1252.932 C 1288.478 1272.558 1241.585 1286.795 1194.29 1298.216 C 1116.511 1317.038 1036.399 1312.855 957.172 1311.81 C 941.648 1311.568 926.205 1308.995 911.003 1306.179 C 906.74 1305.375 902.557 1304.732 898.294 1304.088 L 902.477 1348.729 C 902.477 1348.729 917.599 1349.855 944.624 1348.166 C 939.396 1399.885 937.707 1455.705 950.898 1466.323 C 956.85 1471.149 969.478 1472.033 977.2 1473.32 C 999.882 1477.101 1023.369 1476.538 1046.695 1476.136 C 1066.562 1475.814 1085.705 1471.47 1104.044 1465.84 C 1117.798 1461.658 1123.75 1458.601 1123.509 1445.973 C 1123.267 1429.806 1117.798 1377.846 1112.248 1333.366 C 1163.243 1326.69 1226.062 1314.062 1282.848 1290.495 C 1283.652 1308.351 1284.376 1323.633 1284.295 1326.77 C 1283.813 1339.077 1283.652 1355.887 1294.511 1365.378 C 1324.754 1392.002 1399.637 1376.478 1434.385 1364.896 C 1460.284 1356.37 1452.321 1326.207 1447.174 1308.592 C 1444.198 1298.056 1432.213 1243.2 1420.55 1204.833 Z " fill="rgb(189,207,70)"/><path d=" M 1503.316 1021.283 C 1489.803 1008.575 1467.604 1024.983 1455.217 1031.579 C 1444.117 1037.531 1433.098 1043.403 1421.837 1048.953 C 1429.961 1070.267 1437.039 1091.985 1442.348 1114.184 C 1444.761 1124.078 1447.817 1134.936 1449.345 1145.795 C 1449.747 1145.312 1450.15 1144.829 1450.552 1144.427 C 1454.654 1139.762 1458.354 1135.017 1461.973 1129.949 C 1476.049 1110.002 1486.747 1087.963 1498.249 1066.568 C 1503.799 1055.87 1514.014 1031.418 1503.316 1021.283 Z " fill="rgb(189,207,70)"/></g><g id="Group"><g id="Group"><path d=" M 902.557 1348.729 C 893.468 1349.05 884.299 1348.97 874.888 1348.97 C 807.887 1348.97 744.023 1347.2 678.067 1332.24 C 577.927 1309.638 499.907 1249.715 486.313 1142.497 C 477.948 1076.461 491.3 998.199 542.295 951.95 C 590.153 908.515 676.217 896.531 735.175 916.559 C 803.865 940.045 853.895 996.51 882.449 1061.661 C 904.407 1111.852 919.288 1156.895 928.538 1211.026 C 929.905 1219.311 945.107 1344.546 927.331 1346.879 C 919.127 1347.924 910.842 1348.487 902.557 1348.729 Z " fill="rgb(189,207,70)"/></g><path d=" M 724.558 1014.768 C 744.344 1011.229 763.729 1026.512 767.831 1049.033 C 771.933 1071.474 759.225 1092.708 739.438 1096.328 C 719.732 1099.867 700.347 1084.585 696.165 1062.144 C 692.063 1039.622 704.771 1018.468 724.558 1014.768 Z " fill="rgb(47,47,47)"/><path d=" M 543.502 1044.529 C 549.132 1022.409 569.643 1008.494 589.027 1013.481 C 608.492 1018.468 619.672 1040.507 614.042 1062.626 C 608.331 1084.746 587.982 1098.661 568.517 1093.674 C 549.132 1088.606 537.871 1066.648 543.502 1044.529 Z " fill="rgb(47,47,47)"/><g id="Group"><path d=" M 672.678 1142.014 C 663.509 1147.001 655.626 1152.31 644.929 1148.369 C 638.735 1146.116 632.863 1144.347 627.474 1140.325 C 623.614 1137.51 619.27 1135.177 615.409 1132.362 C 613.399 1130.914 611.468 1129.386 609.457 1127.938 C 607.205 1126.249 606.401 1125.525 603.505 1125.123 C 601.173 1124.882 596.588 1124.721 594.818 1126.651 C 587.258 1135.097 597.875 1147.645 603.586 1153.355 C 612.112 1161.64 624.257 1171.051 635.437 1175.877 C 646.376 1180.622 657.235 1186.333 668.898 1180.542 C 681.687 1174.107 692.787 1164.777 704.047 1156.171 C 711.447 1150.54 728.016 1140.647 725.121 1129.628 C 723.11 1121.584 713.78 1123.273 707.667 1125.204 C 699.945 1127.536 693.028 1131.477 685.869 1135.097 C 681.445 1137.269 677.102 1139.682 672.678 1142.014 Z " fill="rgb(47,47,47)"/></g><g id="Group"><path d=" M 701.159 1260 L 701.159 1284 C 707.368 1291.677 719.02 1292.15 725.813 1285 Q 732.628 1277.828 723.841 1260" fill="none" vector-effect="non-scaling-stroke" stroke-width="0.993" stroke="rgb(0,0,0)" stroke-linejoin="miter" stroke-linecap="square" stroke-miterlimit="3"/><path d=" M 499 1192 Q 550.501 1226.078 581.613 1238 C 623.664 1254.114 662.043 1260.518 707.026 1260 C 749.211 1259.514 783.883 1248.908 824.476 1238 Q 860.937 1228.202 926 1203" fill="none" vector-effect="non-scaling-stroke" stroke-width="0.993" stroke-dasharray="20,1" stroke="rgb(0,0,0)" stroke-linejoin="miter" stroke-linecap="butt" stroke-miterlimit="3"/><g id="Group"><g transform="matrix(0.199,-0.014,0.014,0.199,697.195,1288.35)"><text transform="matrix(1,0,0,1,0,12.826)" style="font-family:&quot;Open Sans&quot;;font-weight:400;font-size:12px;font-style:normal;fill:#000000;stroke:none;">Wappen der Steiermark</text></g><g transform="matrix(0.199,-0.014,0.014,0.199,697.391,1291.218)"><text transform="matrix(1,0,0,1,0,12.826)" style="font-family:&quot;Open Sans&quot;;font-weight:400;font-size:12px;font-style:normal;fill:#000000;stroke:none;">David Liuzzo 2006</text></g><path d=" M 696.069 1288.11 C 696.062 1288.29 693.47 1327.619 720.689 1339.887 C 745.992 1324.038 737.978 1285.536 737.949 1285.359 C 737.923 1285.181 696.072 1287.928 696.069 1288.11 L 696.069 1288.11 Z " fill-rule="evenodd" fill="rgb(0,102,44)" vector-effect="non-scaling-stroke" stroke-width="0.599" stroke="rgb(27,23,27)" stroke-linejoin="round" stroke-linecap="butt" stroke-miterlimit="2.61310005"/><g id="Panther"><path d=" M 736.972 1313.805 C 736.452 1314.377 735.051 1314.489 734.789 1313.802 C 734.69 1313.544 734.494 1313.278 734.741 1313.099 C 735.22 1312.742 735.785 1312.918 736.239 1312.545 C 736.963 1311.934 737.201 1311.18 736.857 1310.376 C 736.56 1309.677 735.506 1310.57 734.63 1310.63 C 734.201 1310.659 733.934 1310.783 733.514 1310.706 C 732.945 1310.6 732.922 1310.101 732.676 1309.649 C 732.506 1309.334 732.212 1308.799 732.614 1308.745 C 733.111 1308.683 733.405 1308.663 733.902 1308.558 C 734.701 1308.388 735.218 1308.062 735.595 1307.431 C 736.131 1306.545 735.706 1305.503 734.719 1305.014 C 734.237 1305.492 734.309 1305.983 733.815 1306.438 C 733.279 1306.938 732.611 1306.872 731.836 1306.828 C 731.353 1306.805 731.002 1306.968 730.589 1306.762 C 730.125 1306.529 730.176 1306.107 729.93 1305.695 C 729.693 1305.307 729.356 1305.122 729.325 1304.672 C 731.162 1304.547 732.464 1305.035 734.012 1304.152 C 734.837 1303.686 735.157 1303.177 735.488 1302.386 C 735.767 1301.714 735.515 1300.967 734.78 1300.663 C 734.376 1300.496 733.84 1300.507 733.611 1300.844 C 733.411 1301.144 733.668 1301.481 733.374 1301.721 C 732.725 1302.257 732.065 1302.201 731.172 1302.326 C 730.487 1302.417 730.057 1302.402 729.396 1302.243 C 728.999 1302.149 728.68 1302.344 728.33 1302.162 C 727.746 1301.866 727.699 1301.181 728.048 1300.67 C 729.13 1300.944 729.848 1300.639 730.954 1300.827 C 732.328 1301.052 733.425 1300.826 734.438 1299.981 C 735.352 1299.216 735.457 1298.37 735.315 1297.292 C 735.193 1296.318 733.75 1295.962 732.649 1296.262 C 732.676 1296.657 733.153 1296.72 733.354 1297.073 C 733.622 1297.527 733.596 1298.05 733.147 1298.4 C 732.366 1299.018 731.482 1298.652 730.441 1298.534 C 729.78 1298.461 729.366 1298.551 728.72 1298.401 C 728.302 1298.302 727.885 1298.55 727.59 1298.275 C 727.259 1297.957 727.551 1297.57 727.692 1297.154 C 727.87 1296.631 727.884 1296.308 728.011 1295.77 C 728.239 1294.796 728.595 1294.188 729.45 1293.498 C 730.192 1292.897 731.177 1293.617 731.918 1294.191 C 732.913 1294.967 734.264 1295.064 735.415 1294.404 C 736.025 1294.055 736.523 1293.572 736.321 1292.98 C 735.608 1293.029 735.196 1293.272 734.501 1293.154 C 734.505 1292.638 735.379 1292.598 735.436 1292.08 C 735.484 1291.616 734.697 1291.658 734.164 1291.611 C 732.921 1291.507 732.255 1291.086 731.003 1291.172 C 729.768 1291.256 728.974 1291.584 728.134 1292.377 C 727.671 1292.813 727.554 1293.166 727.16 1293.655 C 726.811 1294.081 726.962 1294.806 726.353 1294.821 C 726.291 1293.915 726.315 1293.41 726.195 1292.51 C 726.144 1292.097 725.665 1291.597 726.123 1291.453 C 726.628 1291.29 726.924 1291.195 727.461 1291.158 C 727.814 1291.134 728.165 1291.212 728.332 1290.947 C 728.419 1290.802 728.227 1290.697 728.129 1290.557 C 727.841 1290.16 727.535 1290.004 727.071 1289.77 C 726.552 1289.515 726.13 1289.612 725.572 1289.419 C 725.115 1289.258 725.379 1288.779 725.264 1288.38 C 725.053 1287.652 723.623 1286.818 723.257 1287.505 C 723.028 1287.941 723.269 1288.272 723.103 1288.726 C 722.953 1289.124 722.19 1289.112 721.869 1288.81 C 721.406 1288.387 722.458 1288.022 722.845 1287.533 C 723.033 1287.283 722.594 1287.063 722.276 1286.964 C 721.279 1286.648 720.481 1287.181 719.675 1287.799 C 719.331 1288.061 719.029 1288.299 718.584 1288.228 C 718.038 1288.137 717.59 1287.771 717.155 1288.072 C 716.324 1288.649 715.96 1289.144 715.015 1289.58 C 714.058 1290.026 713.426 1290.194 712.352 1290.32 C 711.846 1290.373 711.44 1290.512 711.21 1290.904 C 710.995 1291.256 710.43 1290.853 710.067 1290.627 C 708.447 1289.595 706.891 1289.259 704.937 1289.815 C 704.082 1290.056 703.59 1291.688 704.48 1291.765 C 704.837 1291.797 704.996 1291.529 705.345 1291.455 C 706.04 1291.303 706.914 1291.012 707.182 1291.58 C 706.352 1291.978 705.562 1291.939 705.071 1292.635 C 704.649 1293.238 704.728 1294.396 705.544 1294.369 C 705.589 1295.036 705.36 1295.9 706.125 1295.999 C 706.506 1296.049 706.516 1295.554 706.852 1295.391 C 707.209 1295.216 707.491 1295.249 707.904 1295.221 L 707.914 1295.369 C 707.346 1295.72 707.342 1296.2 706.881 1296.655 C 706.692 1296.838 706.443 1296.526 706.213 1296.395 C 705.882 1296.21 705.612 1296.145 705.352 1295.9 C 704.438 1295.041 704.525 1294.162 704.444 1292.983 C 704.374 1291.945 702.922 1291.019 701.869 1291.541 C 701.301 1291.816 702.201 1292.532 701.787 1292.958 C 701.352 1293.406 700.741 1292.765 700.064 1292.825 C 698.788 1292.938 698.039 1294.15 698.279 1295.219 C 698.336 1295.481 698.352 1295.716 698.619 1295.854 C 698.954 1296.027 699.167 1295.329 699.536 1295.436 C 699.753 1295.497 699.672 1295.758 699.86 1295.868 C 700.036 1295.977 700.236 1295.824 700.45 1295.878 C 700.646 1295.931 700.559 1296.175 700.481 1296.335 C 699.943 1297.348 699.702 1298.66 700.851 1299.138 C 701.19 1299.28 701.416 1298.898 701.702 1298.675 C 702.244 1298.26 702.704 1298.195 703.366 1297.957 C 703.553 1297.892 703.623 1297.712 703.823 1297.722 C 703.665 1298.227 703.612 1298.533 703.676 1299.045 C 703.741 1299.561 702.94 1299.93 703.291 1300.336 C 703.933 1301.068 705.396 1300.559 706.03 1299.795 C 706.407 1300.136 706.193 1300.529 706.347 1300.986 C 706.476 1301.356 706.808 1301.461 707.107 1301.743 C 707.485 1302.096 707.595 1302.379 707.943 1302.746 C 708.182 1303.001 708.645 1303.086 708.581 1303.412 C 708.03 1303.449 707.301 1303.386 707.251 1303.855 C 707.193 1304.407 707.544 1304.788 708.101 1305.062 C 708.397 1305.203 708.676 1305.254 708.839 1305.516 C 708.989 1305.746 708.642 1305.922 708.471 1306.149 C 708.13 1306.586 707.975 1306.906 707.481 1307.226 C 706.457 1307.897 705.815 1308.222 704.824 1308.923 C 704.204 1309.356 703.704 1309.806 702.925 1309.658 C 702.47 1309.569 702.425 1309.155 701.996 1309.014 C 701.435 1308.832 700.997 1309.096 700.486 1309.37 C 699.902 1309.682 700.095 1310.244 699.934 1310.82 C 699.79 1311.338 699.848 1311.694 700.086 1312.176 C 700.3 1312.602 700.937 1311.993 701.489 1311.979 C 701.812 1311.971 701.694 1312.414 701.595 1312.681 C 701.332 1313.373 701.076 1313.965 701.545 1314.553 C 701.812 1314.882 702.658 1315.17 702.742 1314.774 C 702.853 1314.256 703.428 1314.02 704.045 1313.978 C 704.064 1314.256 703.959 1314.438 704.093 1314.682 C 704.221 1314.907 704.603 1314.817 704.862 1314.684 C 705.407 1314.382 705.681 1314.067 705.905 1313.546 C 706.096 1313.091 706.36 1312.773 706.176 1312.317 C 705.972 1311.827 705.496 1311.131 706.083 1310.961 C 706.368 1311.362 706.339 1311.686 706.633 1312.085 C 706.9 1312.445 707.554 1312.199 707.919 1311.895 C 708.169 1311.686 708.017 1311.416 708.1 1311.126 C 708.28 1310.501 708.748 1310.018 709.498 1309.967 C 709.628 1310.698 710.198 1311.6 711.008 1311.33 C 711.349 1311.219 711.079 1310.826 711.011 1310.523 C 710.927 1310.141 711.077 1309.76 711.481 1309.581 C 712.509 1310.861 713.337 1311.526 714.966 1312.223 C 715.646 1312.518 716.031 1312.693 716.725 1312.962 C 717.115 1313.113 717.497 1313.006 717.753 1313.296 C 717.842 1313.396 717.649 1313.492 717.598 1313.609 C 717.456 1313.917 717.763 1314.124 717.775 1314.456 C 716.465 1314.545 715.722 1314.445 714.411 1314.534 C 713.174 1314.619 712.649 1315.285 711.546 1315.791 C 710.562 1316.241 710.473 1317.014 709.976 1317.866 C 709.365 1318.934 708.764 1319.758 707.408 1320.016 C 707.466 1320.861 708.613 1321.144 709.605 1321.077 C 709.769 1321.983 709.144 1321.983 710.176 1323.363 C 710.715 1324.082 711.724 1323.609 712.736 1323.692 C 713.693 1323.773 713.724 1324.921 713.466 1325.714 C 713.176 1326.575 713.351 1327.724 712.308 1327.817 C 711.802 1327.856 711.483 1328.06 711.017 1327.905 C 710.759 1327.819 710.778 1327.574 710.571 1327.43 C 710.307 1327.244 710.021 1327.377 709.678 1327.339 C 709.111 1327.269 708.78 1327.599 708.362 1327.932 C 708.025 1328.201 707.66 1328.271 707.526 1328.647 C 707.226 1329.457 708.909 1329.577 708.944 1330.421 C 708.97 1330.998 709.116 1331.521 709.742 1331.731 C 710.105 1331.851 710.299 1331.456 710.657 1331.314 C 711.034 1331.844 710.892 1332.289 711.233 1332.84 C 711.583 1333.405 712.318 1333.778 712.988 1333.48 C 713.335 1333.328 713.019 1332.946 713.051 1332.614 C 713.072 1332.31 713.208 1332.138 713.291 1331.842 C 713.478 1331.214 713.501 1330.739 714.074 1330.324 C 714.498 1330.707 715.172 1330.734 715.674 1330.416 C 716.093 1330.153 716.035 1329.772 716.253 1329.365 C 716.703 1328.508 716.122 1327.152 717.217 1327.078 C 717.243 1327.467 717.061 1327.713 717.169 1328.091 C 717.254 1328.393 717.803 1327.977 718.031 1327.728 C 718.316 1327.407 718.526 1327.213 718.676 1326.825 C 718.827 1326.441 718.668 1326.029 719.08 1325.84 C 719.48 1325.651 719.015 1325.222 719.012 1324.83 C 719.01 1324.454 719.509 1324.318 719.483 1323.942 C 719.426 1323.111 719.204 1322.558 718.523 1321.985 C 717.871 1321.438 717.324 1321.057 716.396 1321.12 C 716.12 1321.139 715.743 1321.044 715.785 1320.807 C 715.882 1320.283 716.609 1320.349 717.089 1320.011 C 717.556 1319.684 717.667 1319.31 718.205 1319.077 C 719.403 1318.553 720.29 1318.977 721.621 1318.943 C 721.648 1319.341 721.297 1319.516 721.035 1319.844 C 720.42 1320.6 719.877 1321.079 719.881 1321.994 C 719.89 1323.301 719.343 1324.091 719.756 1325.34 C 720.13 1326.487 719.561 1327.358 720.259 1328.387 C 720.536 1328.801 721.809 1328.922 721.736 1328.44 C 721.652 1327.828 721.818 1327.479 721.806 1326.865 C 722.111 1327.093 721.994 1327.415 722.218 1327.698 C 722.444 1327.978 723.007 1328.219 723.236 1327.928 C 723.496 1327.611 722.949 1327.175 723.287 1326.915 C 723.61 1326.666 724.093 1326.702 724.41 1326.94 C 724.962 1327.35 724.772 1327.892 724.815 1328.53 C 724.875 1329.415 724.616 1329.954 724.138 1330.75 C 723.741 1331.408 723.436 1332.058 722.578 1332.117 C 721.755 1332.173 721.116 1331.869 720.465 1332.313 C 719.804 1332.763 719.321 1333.049 719.029 1333.724 C 718.87 1334.094 718.868 1334.531 719.271 1334.719 C 719.646 1334.89 719.957 1334.672 720.391 1334.643 C 720.452 1335.549 720.18 1336.24 720.842 1336.937 C 721.413 1337.541 722.319 1336.564 722.959 1335.981 C 723.393 1336.271 723.629 1336.581 724.184 1336.607 C 724.567 1336.626 724.796 1336.287 724.847 1335.954 C 724.986 1335.093 724.901 1334.593 724.988 1333.724 C 725.457 1333.964 725.653 1334.594 726.157 1334.401 C 726.698 1334.191 726.826 1333.8 727.029 1333.329 C 727.248 1332.835 727.327 1332.424 727.055 1331.963 C 726.812 1331.563 727.529 1331.344 727.811 1330.951 C 728.271 1330.314 728.494 1329.906 728.694 1329.174 C 728.825 1328.692 728.754 1328.224 729.26 1327.974 C 729.525 1327.85 729.804 1327.899 729.95 1327.674 C 730.124 1327.416 729.648 1327.037 729.955 1326.915 C 730.306 1326.77 730.565 1326.873 730.957 1326.847 C 730.903 1326.062 730.716 1325.422 731.35 1324.849 C 731.545 1324.678 731.35 1324.301 731.074 1324.263 C 730.484 1324.175 730.165 1324.575 729.564 1324.616 C 729.744 1323.911 730.609 1323.739 731.449 1323.682 C 731.494 1323.149 731.291 1322.671 730.716 1322.466 C 730.135 1322.267 729.791 1322.884 729.155 1322.928 C 728.606 1322.965 728.285 1322.84 727.777 1322.667 C 727.448 1322.55 727.226 1322.856 726.916 1323.031 C 726.634 1323.189 726.373 1323.164 726.112 1323.339 C 725.53 1322.948 725.749 1322.145 726.294 1321.708 C 726.464 1321.576 726.529 1321.321 726.745 1321.375 C 727.097 1321.464 727.017 1321.912 727.377 1321.989 C 727.624 1322.041 727.731 1321.754 727.82 1321.555 C 727.974 1321.211 727.826 1320.904 728.111 1320.627 C 728.325 1320.414 728.781 1320.957 728.941 1320.719 C 729.371 1320.077 729.001 1319.294 729.767 1318.946 C 730.59 1319.968 731.956 1320.407 733.316 1319.915 C 734.254 1319.581 734.648 1318.98 734.906 1318.142 C 735.017 1317.779 735.076 1317.565 735.198 1317.211 C 735.334 1316.821 735.04 1316.413 735.422 1316.183 C 735.718 1316.007 735.998 1316.17 736.363 1316.119 C 737.43 1315.973 737.897 1314.248 736.972 1313.805 Z  M 730.107 1309.221 C 730.439 1309.109 730.558 1309.538 730.736 1309.782 C 731.136 1310.319 731.727 1310.684 731.488 1311.298 C 731.382 1311.577 731.035 1311.634 730.688 1311.658 C 729.555 1311.6 729.049 1309.577 730.107 1309.221 Z  M 727.399 1305.01 C 727.995 1305.049 727.981 1305.646 728.185 1306.119 C 728.394 1306.599 728.764 1306.818 728.799 1307.34 C 728.184 1307.482 727.884 1307.798 727.504 1308.235 C 727.214 1308.565 726.56 1308.141 726.407 1307.754 C 726.142 1307.087 726.119 1306.556 726.52 1305.928 C 726.778 1305.522 727.157 1305.416 727.399 1305.01 Z  M 725.646 1302.653 C 725.613 1302.163 725.868 1301.886 726.155 1301.455 C 726.358 1301.762 726.724 1302.021 726.511 1302.341 C 726.335 1302.606 726.009 1302.652 725.646 1302.653 Z  M 726.106 1295.548 C 726.216 1295.867 726.06 1296.078 725.987 1296.415 C 725.949 1296.384 725.921 1296.374 725.868 1296.37 C 725.846 1296.044 725.955 1295.849 726.106 1295.548 Z  M 718.153 1296.646 C 717.821 1296.877 717.651 1297.07 717.248 1297.209 C 716.864 1297.346 716.539 1297.007 716.183 1297.185 C 715.839 1297.35 715.927 1297.687 715.826 1298.015 C 715.723 1298.344 715.318 1298.36 714.976 1298.53 C 714.299 1298.86 713.927 1299.081 713.331 1299.5 C 712.934 1299.773 712.579 1299.242 712.12 1299.077 C 711.555 1298.877 711.208 1298.768 710.667 1298.519 C 710.226 1298.322 709.847 1298.449 709.41 1298.25 C 708.805 1297.979 708.494 1297.749 707.828 1297.601 C 707.87 1297.125 708.598 1297.196 709.084 1296.959 C 709.692 1296.667 709.977 1296.406 710.43 1295.957 C 710.689 1295.708 710.738 1295.43 711.095 1295.306 C 711.859 1295.032 712.663 1295.124 712.988 1294.47 C 713.838 1294.937 714.957 1295.341 715.596 1294.645 C 716.049 1294.155 716.27 1293.83 716.812 1293.401 C 716.942 1293.297 716.857 1293.095 717.022 1293.034 C 717.396 1292.88 717.674 1292.956 718.079 1292.962 C 718.699 1292.962 719.086 1293.238 719.429 1293.676 C 719.759 1294.11 720.522 1294.278 720.326 1294.776 C 719.943 1295.739 719.067 1295.995 718.153 1296.646 Z  M 732.889 1317.973 C 732.732 1318.289 732.247 1318.398 731.903 1318.241 C 731.18 1317.92 730.892 1317.478 730.625 1316.815 C 730.2 1315.745 730.222 1314.998 729.494 1314.062 C 728.182 1312.37 726.664 1311.98 724.724 1310.799 C 723.716 1310.187 723.061 1309.858 722.36 1308.991 C 721.906 1308.428 721.492 1308.196 721.084 1307.611 C 720.85 1307.275 721.019 1306.859 720.608 1306.686 C 720.669 1306.604 720.718 1306.558 720.771 1306.474 C 720.83 1306.484 720.869 1306.514 720.896 1306.562 C 721.152 1306.434 721.46 1306.5 721.583 1306.265 C 721.811 1305.83 721.272 1305.578 721.095 1305.136 C 720.826 1304.479 721.134 1304.02 721.146 1303.312 L 721.321 1303.3 C 721.354 1303.773 721.623 1304.024 721.986 1304.366 C 722.143 1304.514 722.271 1304.782 722.478 1304.687 C 723.235 1304.319 722.616 1303.536 722.704 1302.801 C 722.79 1302.114 722.788 1301.66 723.174 1301.052 C 723.577 1300.429 724.07 1300.126 724.127 1299.422 C 724.597 1299.408 724.85 1299.623 725.319 1299.591 C 725.543 1298.517 725.137 1297.783 725.78 1296.83 L 725.957 1296.818 C 725.988 1297.27 725.856 1297.532 725.859 1297.988 C 725.863 1298.563 726.213 1299.071 725.725 1299.464 C 724.962 1300.084 724.502 1300.475 724.076 1301.296 C 723.625 1302.183 723.645 1302.839 723.894 1303.782 C 724.14 1304.718 723.763 1305.302 723.828 1306.265 C 723.895 1307.249 724.22 1307.816 724.873 1308.616 C 725.468 1309.353 726.694 1309.352 726.755 1310.256 C 726.869 1311.918 728.494 1313.221 730.434 1313.089 C 730.798 1314.124 730.825 1315.285 732.067 1315.451 C 732.626 1315.529 732.012 1316.271 732.273 1316.702 C 732.43 1316.968 732.357 1317.203 732.56 1317.44 C 732.71 1317.624 732.991 1317.766 732.889 1317.973 Z  M 732.367 1313.816 C 732.292 1313.632 732.543 1313.525 732.633 1313.341 C 732.775 1313.578 732.914 1313.715 732.971 1313.976 C 732.721 1314 732.456 1314.011 732.367 1313.816 Z " fill="rgb(27,23,27)"/><radialGradient id="_rgradient_0" fx="50.08604025354053%" fy="50.079970039272226%" cx="50.08604025354053%" cy="50.079970039272226%" r="222.3251418140805%"><stop offset="0%" stop-opacity="1" style="stop-color:rgb(242,155,122)"/><stop offset="15.099999%" stop-opacity="1" style="stop-color:rgb(239,132,97)"/><stop offset="50%" stop-opacity="1" style="stop-color:rgb(231,80,53)"/><stop offset="72.439998%" stop-opacity="1" style="stop-color:rgb(216,53,42)"/><stop offset="100%" stop-opacity="1" style="stop-color:rgb(201,17,34)"/></radialGradient><path d=" M 721.319 1287.687 C 721.383 1288.054 721.033 1288.246 721.03 1288.617 C 720.771 1288.635 720.633 1288.554 720.376 1288.56 C 720.272 1288.113 720.783 1287.693 721.319 1287.687 L 721.319 1287.687 Z " fill-rule="evenodd" fill="url(#_rgradient_0)"/><radialGradient id="_rgradient_1" fx="50.08817829588601%" fy="50.05255008883438%" cx="50.08817829588601%" cy="50.05255008883438%" r="169.92081128876868%"><stop offset="0%" stop-opacity="1" style="stop-color:rgb(242,155,122)"/><stop offset="15.099999%" stop-opacity="1" style="stop-color:rgb(239,132,97)"/><stop offset="50%" stop-opacity="1" style="stop-color:rgb(231,80,53)"/><stop offset="72.439998%" stop-opacity="1" style="stop-color:rgb(216,53,42)"/><stop offset="100%" stop-opacity="1" style="stop-color:rgb(201,17,34)"/></radialGradient><path d=" M 723.994 1287.961 C 724.597 1288.23 724.996 1288.969 724.507 1289.39 C 724.214 1289.334 723.929 1289.403 723.785 1289.186 C 723.507 1288.777 723.752 1288.384 723.994 1287.961 L 723.994 1287.961 Z " fill-rule="evenodd" fill="url(#_rgradient_1)"/><path d=" M 725.674 1290.069 C 724.953 1290.232 724.579 1290.445 723.887 1290.697 C 723.181 1290.944 722.689 1290.574 721.934 1290.625 C 722.091 1291.525 723.598 1291.228 724.613 1290.951 C 725.626 1290.671 726.515 1289.929 727.296 1290.512 C 727.031 1290.696 726.732 1290.539 726.422 1290.674 C 725.822 1290.944 725.414 1291.048 724.739 1291.094 C 724.787 1291.797 725.517 1292.005 725.676 1292.694 C 725.847 1293.449 725.934 1293.876 725.986 1294.645 C 725.359 1294.305 725.594 1293.691 725.405 1293.068 C 725.281 1292.665 725.02 1292.489 724.869 1292.094 L 724.571 1292.115 C 724.833 1292.993 724.973 1293.508 725.201 1294.396 C 725.322 1294.873 725.514 1295.196 725.287 1295.653 C 725.238 1294.935 725.014 1294.546 724.754 1293.869 L 724.515 1293.885 C 724.601 1295.142 725.175 1295.874 724.796 1297.101 C 724.601 1297.72 724.929 1298.179 724.551 1298.735 C 724.478 1297.655 725.227 1296.748 724.372 1295.969 L 724.248 1295.977 C 724.272 1297.288 724.289 1298.131 723.589 1299.307 C 722.674 1300.821 721.927 1301.768 722.041 1303.454 L 721.864 1303.466 C 721.569 1301.057 723.501 1299.767 723.337 1297.352 L 723.1 1297.368 C 723.027 1299.094 721.949 1299.896 721.439 1301.572 C 721.172 1302.489 720.636 1302.911 720.355 1303.82 C 720.106 1304.619 720.619 1305.098 720.675 1305.922 C 719.581 1305.996 719.47 1304.571 719.751 1303.66 C 720.038 1302.737 720.343 1302.248 720.775 1301.367 C 720.484 1301.406 720.497 1301.691 720.34 1301.901 C 720.049 1302.301 719.861 1302.536 719.646 1302.96 C 719.303 1303.641 719.339 1304.109 719.065 1304.819 C 718.544 1306.155 719.071 1307.521 717.645 1308.25 C 717.766 1307.648 717.965 1307.324 718.192 1306.746 C 718.481 1306.008 718.159 1305.476 718.528 1304.753 C 718.807 1304.212 718.938 1303.857 718.897 1303.264 C 718.554 1303.382 718.72 1303.761 718.538 1304.046 C 718.1 1304.733 718.081 1305.231 717.964 1306.007 C 717.789 1307.128 717.728 1308.024 716.674 1308.721 C 716.637 1308.179 716.77 1307.865 716.934 1307.339 C 717.187 1306.519 716.961 1306.081 717.417 1305.324 C 717.755 1304.764 717.944 1304.301 718.042 1303.675 C 717.546 1303.773 717.571 1304.244 717.34 1304.633 C 716.889 1305.381 716.806 1305.888 716.597 1306.704 C 716.424 1307.368 716.618 1307.816 716.301 1308.443 C 716.04 1308.948 715.731 1309.178 715.439 1309.666 L 715.264 1309.677 C 715.205 1308.809 715.681 1308.341 715.763 1307.47 C 715.841 1306.571 715.73 1306.122 716.126 1305.288 C 716.348 1304.812 716.559 1304.438 716.524 1303.932 C 716.19 1303.997 716.182 1304.301 716.037 1304.571 C 715.556 1305.432 715.756 1306.049 715.372 1306.939 C 714.874 1308.098 715.359 1309.12 714.339 1309.991 C 714.425 1309.063 714.066 1308.565 714.003 1307.64 C 713.967 1307.11 713.723 1306.763 713.97 1306.28 C 714.15 1305.917 714.301 1305.524 713.959 1305.268 C 713.875 1305.981 713.636 1306.371 713.312 1307.029 C 713.292 1306.948 713.263 1306.874 713.181 1306.837 C 713.457 1306.274 713.529 1305.903 713.488 1305.3 L 713.312 1305.312 C 713.237 1305.93 712.954 1306.24 712.707 1306.82 C 712.538 1307.222 712.564 1307.53 712.249 1307.861 C 711.765 1308.362 711.352 1308.577 710.915 1309.113 C 710.943 1308.331 711.458 1307.958 711.911 1307.278 C 712.396 1306.562 712.357 1306.16 712.774 1305.418 C 713.01 1304.988 713.327 1304.623 713.295 1304.153 C 712.731 1304.264 712.706 1304.767 712.482 1305.218 C 712.089 1305.978 712.126 1306.531 711.554 1307.199 C 711.156 1307.671 710.772 1307.879 710.453 1308.388 C 710.026 1309.067 710.416 1309.589 710.468 1310.355 C 709.737 1310.102 709.819 1309.363 709.883 1308.677 C 709.935 1308.042 710.053 1307.682 710.304 1307.083 C 710.845 1305.821 711.322 1305.105 711.436 1303.773 L 711.086 1303.797 C 711.135 1304.517 709.961 1305.636 709.46 1305.069 C 710.162 1304.997 710.3 1304.328 710.992 1304.208 L 710.975 1303.956 C 710.239 1304.037 709.965 1304.486 709.256 1304.679 C 708.682 1304.836 707.734 1304.434 707.965 1303.96 C 708.768 1304.113 709.43 1304.026 710.064 1303.561 C 710.403 1303.311 710.519 1303.076 710.902 1302.897 C 711.186 1302.766 711.516 1302.682 711.522 1302.4 C 711.197 1302.422 710.775 1302.428 710.738 1302.151 C 712.174 1301.821 712.541 1300.708 713.595 1299.936 C 714.167 1299.519 714.509 1299.262 715.183 1298.969 C 715.919 1298.647 716.473 1298.832 717.293 1298.776 C 717.301 1298.69 717.321 1298.616 717.398 1298.565 C 717.192 1298.256 716.813 1298.308 716.428 1298.175 C 716.479 1298.068 716.524 1297.994 716.525 1297.868 C 718.001 1297.768 718.568 1296.894 719.837 1296.226 C 720.491 1295.883 720.614 1295.428 721.044 1294.881 C 721.45 1294.363 722.297 1294.258 722.255 1293.637 C 721.766 1293.67 721.499 1294.105 721.04 1293.97 C 720.468 1293.799 720.119 1293.669 719.696 1293.305 C 718.929 1292.65 718.228 1292.143 717.15 1292.318 C 716.703 1292.386 716.553 1292.704 716.314 1293.03 C 715.927 1293.536 715.579 1293.756 715.218 1294.268 C 715.001 1294.574 714.524 1294.275 714.144 1294.138 C 713.956 1294.068 713.698 1294.092 713.656 1293.92 C 713.586 1293.627 713.909 1293.496 714.082 1293.234 C 714.665 1293.435 715.586 1293.174 715.576 1292.626 C 715.577 1292.055 715.216 1291.437 714.554 1291.482 C 714.247 1291.503 714.167 1291.766 713.871 1291.834 C 713.557 1291.898 713.31 1291.726 713.047 1291.89 C 712.722 1292.094 712.814 1292.49 712.448 1292.638 C 712.171 1292.751 711.929 1292.38 711.941 1292.114 C 712.109 1292.098 712.187 1292.029 712.345 1291.988 C 712.321 1291.634 712.084 1291.405 711.707 1291.272 C 711.915 1290.539 712.961 1290.631 713.843 1290.571 C 714.696 1290.512 715.001 1289.834 715.855 1289.776 C 716.288 1289.746 716.643 1289.526 716.975 1289.752 C 717.383 1290.026 717.156 1290.47 717.46 1290.83 C 717.925 1291.378 718.72 1290.898 719.528 1290.843 C 719.405 1290.123 718.69 1289.907 717.913 1289.636 C 717.533 1289.505 717.276 1289.433 716.995 1289.195 C 716.754 1288.989 717.261 1288.734 717.543 1288.552 C 719.091 1288.851 719.894 1289.389 721.494 1289.392 C 722.306 1289.395 722.678 1289.862 723.478 1289.914 C 724.33 1289.967 724.933 1289.714 725.674 1290.069 L 725.674 1290.069 Z " fill-rule="evenodd" fill="rgb(240,240,240)" vector-effect="non-scaling-stroke" stroke-width="0.169" stroke="rgb(27,23,27)" stroke-linejoin="round" stroke-linecap="butt" stroke-miterlimit="2.61310005"/><radialGradient id="_rgradient_2" fx="50.00898103138787%" fy="50.014243107546896%" cx="50.00898103138787%" cy="50.014243107546896%" r="262.17698979213844%"><stop offset="0%" stop-opacity="1" style="stop-color:rgb(242,155,122)"/><stop offset="15.099999%" stop-opacity="1" style="stop-color:rgb(239,132,97)"/><stop offset="50%" stop-opacity="1" style="stop-color:rgb(231,80,53)"/><stop offset="72.439998%" stop-opacity="1" style="stop-color:rgb(216,53,42)"/><stop offset="100%" stop-opacity="1" style="stop-color:rgb(201,17,34)"/></radialGradient><path d=" M 711.736 1293.444 C 710.442 1293.532 709.771 1293.067 708.556 1292.703 C 707.572 1292.403 706.906 1292.756 705.854 1292.887 C 706.249 1292.082 707.33 1292.28 708.347 1292.211 C 709.309 1292.146 709.778 1292.769 710.741 1292.703 C 710.563 1291.712 709.284 1291.773 708.39 1291.144 C 707.441 1290.478 706.484 1290.619 705.232 1290.704 C 705.164 1290.141 706.08 1289.811 706.714 1289.945 C 707.592 1290.132 708.235 1290.076 708.94 1290.553 C 709.683 1291.048 709.882 1291.569 710.637 1292.055 C 711.248 1292.441 711.793 1292.782 711.736 1293.444 L 711.736 1293.444 Z " fill-rule="evenodd" fill="url(#_rgradient_2)"/><path d=" M 717.731 1290.46 L 717.907 1290.448 C 717.925 1290.503 717.95 1290.537 717.979 1290.594 C 717.863 1290.576 717.787 1290.543 717.731 1290.46 L 717.731 1290.46 Z " fill-rule="evenodd" fill="rgb(240,240,240)" vector-effect="non-scaling-stroke" stroke-width="0.169" stroke="rgb(255,255,255)" stroke-linejoin="miter" stroke-linecap="butt" stroke-miterlimit="2.61310005"/><radialGradient id="_rgradient_3" fx="50.08206931233854%" fy="50.11177884012099%" cx="50.08206931233854%" cy="50.11177884012099%" r="191.94537608837345%"><stop offset="0%" stop-opacity="1" style="stop-color:rgb(242,155,122)"/><stop offset="15.099999%" stop-opacity="1" style="stop-color:rgb(239,132,97)"/><stop offset="50%" stop-opacity="1" style="stop-color:rgb(231,80,53)"/><stop offset="72.439998%" stop-opacity="1" style="stop-color:rgb(216,53,42)"/><stop offset="100%" stop-opacity="1" style="stop-color:rgb(201,17,34)"/></radialGradient><path d=" M 702.718 1291.935 C 703.036 1291.911 703.153 1292.239 703.172 1292.512 C 702.86 1292.488 702.407 1291.963 702.718 1291.935 L 702.718 1291.935 Z " fill-rule="evenodd" fill="url(#_rgradient_3)"/><path d=" M 703.842 1292.818 C 703.847 1292.894 703.865 1292.945 703.856 1293.023 C 703.846 1293.313 703.439 1293.506 703.61 1293.745 C 703.708 1293.89 703.963 1293.86 704.043 1294.02 C 704.296 1294.511 703.949 1294.949 704.255 1295.418 C 704.791 1296.249 705.356 1296.613 706.264 1297.152 C 707.026 1297.606 707.27 1298.195 708.175 1298.386 C 709.681 1298.706 710.568 1298.944 711.865 1299.648 C 712.231 1299.852 712.606 1300.117 712.453 1300.468 C 712.063 1301.363 711.224 1301.754 710.129 1301.892 C 710.087 1302.266 710.298 1302.471 710.428 1302.832 C 709.118 1303.136 708.32 1302.228 707.435 1301.366 C 707.046 1300.991 706.765 1300.757 706.649 1300.259 C 706.473 1299.485 706.39 1298.455 705.471 1298.518 C 705.476 1298.822 705.482 1299.006 705.346 1299.285 C 704.797 1299.15 704.502 1298.82 704.395 1298.341 C 704.29 1297.882 704.591 1297.53 704.312 1297.13 C 704.166 1296.913 703.851 1296.8 703.591 1296.929 C 703.271 1297.09 703.034 1297.516 702.734 1297.342 C 702.498 1297.2 702.468 1297.013 702.283 1296.817 C 701.974 1296.484 702.047 1296.15 702.09 1295.716 C 702.134 1295.361 701.487 1295.405 701.07 1295.434 C 700.113 1295.499 699.994 1294.407 699.939 1293.59 C 700.273 1293.506 700.482 1293.863 700.569 1294.155 C 700.911 1294.087 700.925 1293.764 700.992 1293.469 C 701.761 1293.473 701.993 1294.077 702.373 1294.638 C 702.884 1294.463 702.538 1293.889 702.467 1293.418 C 702.981 1293.284 703.337 1293.188 703.667 1292.83 L 703.842 1292.818 L 703.842 1292.818 Z " fill-rule="evenodd" fill="rgb(240,240,240)"/><radialGradient id="_rgradient_4" fx="50.02705644402603%" fy="50.06590523481478%" cx="50.02705644402603%" cy="50.06590523481478%" r="253.50566376487333%"><stop offset="0%" stop-opacity="1" style="stop-color:rgb(242,155,122)"/><stop offset="15.099999%" stop-opacity="1" style="stop-color:rgb(239,132,97)"/><stop offset="50%" stop-opacity="1" style="stop-color:rgb(231,80,53)"/><stop offset="72.439998%" stop-opacity="1" style="stop-color:rgb(216,53,42)"/><stop offset="100%" stop-opacity="1" style="stop-color:rgb(201,17,34)"/></radialGradient><path d=" M 714.479 1292.093 C 714.91 1292.064 715.264 1292.376 715.29 1292.748 C 714.878 1292.776 714.629 1292.83 714.228 1292.77 C 714.226 1292.498 714.415 1292.358 714.479 1292.093 L 714.479 1292.093 Z " fill-rule="evenodd" fill="url(#_rgradient_4)"/><radialGradient id="_rgradient_5" fx="50.002207451961844%" fy="50.047436864537076%" cx="50.002207451961844%" cy="50.047436864537076%" r="309.4613272432618%"><stop offset="0%" stop-opacity="1" style="stop-color:rgb(242,155,122)"/><stop offset="15.099999%" stop-opacity="1" style="stop-color:rgb(239,132,97)"/><stop offset="50%" stop-opacity="1" style="stop-color:rgb(231,80,53)"/><stop offset="72.439998%" stop-opacity="1" style="stop-color:rgb(216,53,42)"/><stop offset="100%" stop-opacity="1" style="stop-color:rgb(201,17,34)"/></radialGradient><path d=" M 713.385 1292.523 C 713.995 1292.798 713.004 1293.41 712.595 1293.889 C 712.136 1294.426 711.523 1294.532 710.751 1294.573 C 709.05 1294.649 708.088 1294.603 706.391 1294.719 C 707.083 1293.508 708.728 1293.933 710.289 1293.895 C 711.029 1293.878 711.562 1294.212 712.18 1293.87 C 712.455 1293.719 712.331 1293.384 712.608 1293.233 C 712.97 1293.031 713.218 1292.867 713.385 1292.523 L 713.385 1292.523 Z " fill-rule="evenodd" fill="url(#_rgradient_5)"/><path d=" M 734.439 1292.248 C 734.171 1292.614 733.64 1292.488 733.151 1292.388 C 732.403 1292.231 731.923 1292.321 731.144 1292.374 C 729.985 1292.453 729.246 1292.882 728.578 1293.71 C 728.062 1294.357 727.721 1294.755 727.462 1295.506 C 727.017 1296.78 727.404 1297.687 726.627 1298.845 C 726.202 1298.559 726.347 1298.102 726.484 1297.644 C 726.697 1296.967 726.716 1296.554 726.775 1295.855 C 726.882 1294.684 727.52 1294.099 728.304 1293.123 C 728.804 1292.493 729.162 1292.09 729.981 1291.793 C 730.767 1291.517 731.366 1291.41 732.157 1291.645 C 733.03 1291.909 733.544 1292.059 734.439 1292.248 L 734.439 1292.248 Z " fill-rule="evenodd" fill="rgb(240,240,240)"/><radialGradient id="_rgradient_6" fx="49.96160841107012%" fy="50.13255614266967%" cx="49.96160841107012%" cy="50.13255614266967%" r="221.8060530480932%"><stop offset="0%" stop-opacity="1" style="stop-color:rgb(242,155,122)"/><stop offset="15.099999%" stop-opacity="1" style="stop-color:rgb(239,132,97)"/><stop offset="50%" stop-opacity="1" style="stop-color:rgb(231,80,53)"/><stop offset="72.439998%" stop-opacity="1" style="stop-color:rgb(216,53,42)"/><stop offset="100%" stop-opacity="1" style="stop-color:rgb(201,17,34)"/></radialGradient><path d=" M 699.386 1294.134 C 699.442 1294.301 699.443 1294.414 699.417 1294.586 L 698.948 1294.618 C 698.928 1294.388 699.115 1294.153 699.386 1294.134 L 699.386 1294.134 Z " fill-rule="evenodd" fill="url(#_rgradient_6)"/><path d=" M 730.937 1292.842 C 731.805 1292.783 732.494 1292.615 733.142 1293.096 C 733.777 1293.573 734.446 1294.145 735.192 1293.762 C 735.018 1294.522 733.691 1294.544 732.921 1294.173 C 732.117 1293.785 731.871 1293.171 730.951 1293.044 L 730.937 1292.842 L 730.937 1292.842 Z " fill-rule="evenodd" fill="rgb(240,240,240)"/><radialGradient id="_rgradient_7" fx="50.01093621125303%" fy="50.15143544763845%" cx="50.01093621125303%" cy="50.15143544763845%" r="286.5984710790482%"><stop offset="0%" stop-opacity="1" style="stop-color:rgb(242,155,122)"/><stop offset="15.099999%" stop-opacity="1" style="stop-color:rgb(239,132,97)"/><stop offset="50%" stop-opacity="1" style="stop-color:rgb(231,80,53)"/><stop offset="72.439998%" stop-opacity="1" style="stop-color:rgb(216,53,42)"/><stop offset="100%" stop-opacity="1" style="stop-color:rgb(201,17,34)"/></radialGradient><path d=" M 709.242 1295.787 C 709.145 1296.274 708.562 1296.439 707.989 1296.478 C 707.956 1296.367 707.932 1296.293 707.908 1296.183 C 708.432 1296.062 708.701 1295.876 709.242 1295.787 L 709.242 1295.787 Z " fill-rule="evenodd" fill="url(#_rgradient_7)"/><radialGradient id="_rgradient_8" fx="50.003371536753164%" fy="50.07448364023723%" cx="50.003371536753164%" cy="50.07448364023723%" r="161.02513550194624%"><stop offset="0%" stop-opacity="1" style="stop-color:rgb(242,155,122)"/><stop offset="15.099999%" stop-opacity="1" style="stop-color:rgb(239,132,97)"/><stop offset="50%" stop-opacity="1" style="stop-color:rgb(231,80,53)"/><stop offset="72.439998%" stop-opacity="1" style="stop-color:rgb(216,53,42)"/><stop offset="100%" stop-opacity="1" style="stop-color:rgb(201,17,34)"/></radialGradient><path d=" M 701.199 1296.487 C 701.864 1296.467 702.312 1297.22 702.053 1297.744 L 701.877 1297.755 C 701.687 1297.234 701.112 1297.03 701.199 1296.487 L 701.199 1296.487 Z " fill-rule="evenodd" fill="url(#_rgradient_8)"/><radialGradient id="_rgradient_9" fx="49.96657237427531%" fy="50.11226225356751%" cx="49.96657237427531%" cy="50.11226225356751%" r="136.68316701127145%"><stop offset="0%" stop-opacity="1" style="stop-color:rgb(242,155,122)"/><stop offset="15.099999%" stop-opacity="1" style="stop-color:rgb(239,132,97)"/><stop offset="50%" stop-opacity="1" style="stop-color:rgb(231,80,53)"/><stop offset="72.439998%" stop-opacity="1" style="stop-color:rgb(216,53,42)"/><stop offset="100%" stop-opacity="1" style="stop-color:rgb(201,17,34)"/></radialGradient><path d=" M 700.806 1297.625 C 701.133 1297.674 701.173 1298.026 701.146 1298.307 C 700.81 1298.346 700.66 1297.881 700.806 1297.625 L 700.806 1297.625 Z " fill-rule="evenodd" fill="url(#_rgradient_9)"/><path d=" M 733.917 1296.683 C 734.456 1296.665 734.565 1297.18 734.803 1297.582 C 735.212 1298.264 734.87 1298.973 734.231 1299.54 C 733.166 1300.485 731.959 1300.252 730.451 1300.355 C 728.867 1300.463 727.539 1299.674 726.394 1300.632 C 725.855 1301.078 725.422 1301.296 725.122 1301.88 C 724.816 1302.475 725.015 1302.937 724.701 1303.524 C 724.104 1303.207 724.431 1302.568 724.537 1301.967 C 724.656 1301.33 724.935 1300.989 725.258 1300.404 C 725.546 1299.879 726.086 1299.799 726.671 1299.499 C 727.27 1299.194 727.665 1298.89 728.345 1298.931 C 729.851 1299.032 730.692 1299.379 732.207 1299.275 C 733.014 1299.22 733.689 1298.945 733.969 1298.294 C 734.221 1297.705 733.893 1297.316 733.917 1296.683 L 733.917 1296.683 Z " fill-rule="evenodd" fill="rgb(240,240,240)"/><radialGradient id="_rgradient_10" fx="50.029468365132956%" fy="50.319723248001935%" cx="50.029468365132956%" cy="50.319723248001935%" r="219.2753297905146%"><stop offset="0%" stop-opacity="1" style="stop-color:rgb(242,155,122)"/><stop offset="15.099999%" stop-opacity="1" style="stop-color:rgb(239,132,97)"/><stop offset="50%" stop-opacity="1" style="stop-color:rgb(231,80,53)"/><stop offset="72.439998%" stop-opacity="1" style="stop-color:rgb(216,53,42)"/><stop offset="100%" stop-opacity="1" style="stop-color:rgb(201,17,34)"/></radialGradient><path d=" M 704.36 1299.554 C 704.545 1299.589 704.772 1299.741 704.679 1299.887 C 704.592 1300.028 704.397 1300.008 704.217 1300.02 C 704.204 1299.837 704.275 1299.718 704.36 1299.554 L 704.36 1299.554 Z " fill-rule="evenodd" fill="url(#_rgradient_10)"/><path d=" M 726.943 1300.895 L 727.118 1300.883 C 727.304 1301.414 727.53 1301.709 727.568 1302.269 C 727.446 1302.301 727.346 1302.341 727.287 1302.439 C 726.818 1301.986 726.657 1301.47 726.943 1300.895 L 726.943 1300.895 Z " fill-rule="evenodd" fill="rgb(240,240,240)"/><path d=" M 726.555 1309.059 C 725.912 1309.027 725.7 1308.56 725.311 1308.132 C 724.706 1307.473 724.407 1306.975 724.349 1306.126 C 724.292 1305.29 724.264 1304.656 724.911 1304.016 C 725.353 1303.581 725.769 1303.477 726.332 1303.162 C 727.816 1302.321 729.095 1303.023 730.858 1302.903 C 731.777 1302.84 732.473 1303.087 733.2 1302.592 C 733.538 1302.368 733.822 1302.232 733.976 1301.881 C 734.102 1301.589 734.053 1301.245 734.397 1301.146 C 735.06 1301.101 735 1301.963 734.907 1302.525 C 734.802 1303.159 734.189 1303.34 733.634 1303.776 C 732.416 1304.736 731.092 1303.949 729.461 1304.06 C 727.963 1304.162 726.637 1304.421 726.026 1305.607 C 725.372 1306.865 725.633 1307.958 726.555 1309.059 L 726.555 1309.059 Z " fill-rule="evenodd" fill="rgb(240,240,240)"/><path d=" M 710.603 1305.396 C 710.168 1306.279 709.999 1306.801 709.578 1307.688 C 709.294 1308.296 709.642 1308.833 709.159 1309.335 C 708.87 1309.636 708.446 1309.482 707.991 1309.513 C 707.968 1310.13 707.361 1310.566 706.651 1310.615 C 706.641 1310.481 706.622 1310.397 706.566 1310.271 C 706.202 1310.451 705.794 1310.219 705.518 1310.494 C 705.182 1310.823 705.361 1311.192 705.121 1311.58 C 704.975 1311.824 704.665 1311.8 704.38 1311.935 C 703.962 1312.125 703.467 1312.603 703.218 1312.265 C 702.949 1311.887 703.587 1311.585 703.556 1311.133 C 702.778 1311.186 702.179 1311.598 701.556 1311.217 C 701.025 1310.894 701.085 1310.403 701.047 1309.836 C 701.52 1309.766 701.609 1310.381 702.089 1310.373 C 702.116 1310.219 702.128 1310.124 702.118 1309.966 C 702.829 1310.137 703.357 1310.385 704.018 1310.09 C 705.175 1309.564 705.543 1308.867 706.667 1308.289 C 707.41 1307.912 708.014 1307.781 708.479 1307.158 C 709.102 1306.326 709.464 1305.473 710.603 1305.396 L 710.603 1305.396 Z " fill-rule="evenodd" fill="rgb(240,240,240)"/><path d=" M 728.316 1304.592 C 728.751 1304.676 728.734 1305.082 728.962 1305.407 C 729.38 1306.003 729.85 1306.306 729.898 1307.01 C 729.228 1307.055 729.112 1306.409 728.762 1305.929 C 728.437 1305.475 727.996 1305.068 728.316 1304.592 L 728.316 1304.592 Z " fill-rule="evenodd" fill="rgb(240,240,240)"/><path d=" M 719.25 1305.818 C 719.924 1305.947 719.836 1306.603 720.168 1307.118 C 720.53 1307.682 720.652 1308.059 721.091 1308.571 C 721.717 1309.306 722.232 1309.612 723.032 1310.21 C 723.32 1310.422 723.32 1310.736 723.668 1310.871 C 724.973 1311.383 725.555 1311.929 726.686 1312.687 C 727.706 1313.377 728.602 1313.616 729.119 1314.643 C 729.362 1315.125 729.531 1315.392 729.794 1315.862 C 730.181 1316.559 729.941 1317.145 730.455 1317.787 C 730.818 1318.235 731.084 1318.562 731.703 1318.712 C 732.443 1318.89 733.112 1318.646 733.606 1318.125 C 733.953 1317.768 733.172 1317.495 733.004 1317.057 C 732.762 1316.433 732.806 1315.883 733.304 1315.367 C 734.177 1314.463 735.386 1314.539 736.741 1314.731 C 736.796 1315.533 735.504 1315.622 734.563 1315.686 C 734.057 1315.72 733.637 1315.983 733.552 1316.412 C 733.462 1316.834 733.852 1317.037 733.973 1317.445 L 734.267 1317.425 C 734.236 1316.973 733.732 1316.665 734.013 1316.279 C 734.135 1316.114 734.389 1316.045 734.594 1316.14 C 734.768 1316.216 734.643 1316.42 734.625 1316.592 C 734.523 1317.462 734.605 1318.136 733.886 1318.764 C 733.568 1319.046 733.406 1319.267 732.988 1319.433 C 731.731 1319.942 729.974 1319.302 729.83 1318.132 C 728.919 1318.194 729.005 1319.156 728.653 1319.88 C 728.501 1319.656 728.449 1319.496 728.37 1319.242 L 727.958 1319.27 C 727.972 1319.965 727.849 1320.452 727.308 1320.981 C 727.207 1320.697 727.131 1320.525 727.024 1320.244 C 726.643 1320.322 726.583 1320.622 726.357 1320.895 C 726.045 1321.283 725.699 1321.415 725.418 1321.82 C 725.053 1322.337 725.366 1322.788 725.109 1323.354 C 725.015 1323.571 724.831 1323.695 724.855 1323.93 C 725.883 1323.86 726.449 1323.642 727.409 1323.302 C 727.998 1323.089 728.405 1323.416 729.018 1323.542 C 729.571 1323.656 729.854 1323.251 730.403 1323.097 L 730.417 1323.295 C 729.882 1323.35 729.783 1323.802 729.285 1323.98 C 728.896 1324.12 728.629 1323.909 728.216 1323.901 C 727.173 1323.878 726.636 1324.31 725.593 1324.381 C 725.583 1324.535 725.579 1324.637 725.621 1324.785 C 726.127 1324.751 726.472 1324.909 726.914 1324.697 C 727.321 1324.499 727.643 1324.226 728.07 1324.365 C 728.29 1324.433 728.292 1324.66 728.509 1324.742 C 728.355 1325.178 727.947 1325.36 727.441 1325.52 C 727.245 1325.578 727.04 1325.812 727.176 1325.942 C 727.358 1326.112 727.664 1326.079 727.885 1325.946 C 728.754 1325.392 729.379 1325.257 730.415 1324.964 C 730.207 1325.385 729.735 1325.408 729.278 1325.647 C 728.539 1326.04 728.061 1326.284 727.204 1326.342 C 727.183 1326.814 728.094 1326.771 728.574 1326.554 C 729.142 1326.302 729.504 1326.003 730.136 1326.095 C 730.132 1326.421 729.673 1326.436 729.343 1326.603 C 728.739 1326.923 728.309 1327.026 727.607 1327.074 C 727.721 1327.572 728.504 1327.366 729.099 1327.325 C 728.871 1327.981 728.056 1328.056 727.263 1328.11 C 727.292 1328.543 728.014 1328.413 728.521 1328.378 C 728.575 1329.181 727.634 1329.555 726.733 1329.813 C 726.749 1329.97 726.776 1330.063 726.816 1330.212 C 727.118 1330.191 727.295 1330.167 727.583 1330.209 C 727.511 1330.852 726.68 1331.027 725.931 1331.078 L 725.965 1331.584 C 725.635 1331.676 725.329 1331.747 725.229 1332.037 C 725.175 1332.206 725.488 1332.407 725.659 1332.31 C 725.953 1332.153 726.378 1331.89 726.537 1332.151 C 726.617 1332.29 726.386 1332.426 726.202 1332.477 C 725.862 1332.568 725.712 1332.73 725.406 1332.885 C 725.076 1333.05 724.757 1332.497 724.446 1332.698 C 724.057 1332.944 724.077 1333.317 724.105 1333.731 C 723.305 1333.786 722.933 1334.216 722.133 1334.27 C 722.219 1334.742 723.03 1335.271 722.511 1335.455 C 721.999 1335.644 721.404 1335.247 721.344 1334.778 C 721.29 1334.346 721.525 1334.103 721.683 1333.692 C 721.819 1333.343 721.527 1333.053 721.733 1332.731 C 721.861 1332.527 722.185 1332.547 722.435 1332.632 C 722.319 1332.876 722.266 1333.04 722.244 1333.302 C 722.874 1333.233 723.049 1332.748 723.417 1332.312 C 724.087 1331.526 724.447 1331.054 725.047 1330.23 C 725.545 1329.541 725.253 1328.958 725.198 1328.146 C 725.166 1327.678 724.778 1327.267 725.177 1326.939 C 725.427 1326.73 725.804 1326.641 725.783 1326.34 C 725.347 1326.388 725.072 1326.376 724.66 1326.265 C 724.102 1326.114 723.648 1326.606 723.129 1326.369 C 722.551 1326.106 722.491 1325.616 722.452 1325.053 C 722.092 1325.09 721.929 1325.514 722.087 1325.783 C 722.387 1326.28 722.558 1326.599 722.596 1327.162 C 722.187 1326.887 722.476 1326.394 722.107 1326.086 C 721.74 1325.783 721.52 1325.552 721.395 1325.125 L 721.039 1325.149 C 721.098 1326.006 721.342 1326.503 721.19 1327.362 C 721.134 1327.711 721.083 1328.358 720.719 1328.2 C 720.299 1328.021 720.323 1327.626 720.295 1327.219 C 720.174 1325.452 720.341 1324.444 720.22 1322.677 C 720.157 1321.747 720.661 1321.225 721.252 1320.433 C 721.663 1319.883 721.777 1319.489 722.275 1319.001 C 722.805 1318.478 723.079 1318.138 723.41 1317.507 C 723.639 1317.073 723.435 1316.76 723.328 1316.302 C 723.213 1315.797 723.171 1315.459 722.774 1315.074 C 721.619 1313.954 720.488 1313.733 718.865 1313.167 C 718.323 1312.98 718.094 1312.691 717.526 1312.554 C 716.413 1312.287 715.655 1312.287 714.752 1311.681 C 714.44 1311.475 713.928 1311.416 713.999 1311.075 C 714.128 1310.473 714.951 1310.537 715.469 1310.116 C 715.959 1309.724 716.316 1309.572 716.887 1309.261 C 718.42 1308.431 719.002 1307.351 719.25 1305.818 L 719.25 1305.818 Z " fill-rule="evenodd" fill="rgb(240,240,240)"/><path d=" M 734.713 1305.773 C 735.278 1305.811 735.297 1306.49 735.149 1306.955 C 734.991 1307.453 734.727 1307.811 734.156 1307.983 C 732.868 1308.373 731.903 1307.936 730.709 1308.521 C 730.445 1308.647 730.209 1308.542 729.95 1308.676 C 729.171 1309.089 728.93 1309.692 728.834 1310.47 C 728.75 1311.17 728.94 1311.801 729.656 1312.13 C 729.992 1312.285 730.353 1312.14 730.617 1312.367 C 729.353 1312.662 728.095 1312.263 727.532 1311.265 C 726.928 1310.209 727.242 1308.968 728.391 1308.276 C 729.534 1307.593 730.364 1307.364 731.742 1307.239 C 733.065 1307.118 734.79 1306.904 734.713 1305.773 L 734.713 1305.773 Z " fill-rule="evenodd" fill="rgb(240,240,240)"/><path d=" M 713.193 1310.476 C 712.518 1310.101 712.071 1309.812 711.803 1309.154 C 711.646 1308.761 712.159 1308.534 712.51 1308.248 C 712.705 1308.083 712.688 1307.836 712.95 1307.764 C 714.005 1307.566 714.126 1309.162 713.753 1310.031 C 713.65 1310.265 713.369 1310.67 713.193 1310.476 L 713.193 1310.476 Z " fill-rule="evenodd" fill="rgb(240,240,240)"/><path d=" M 730.923 1309.064 C 730.995 1309.009 731.043 1308.961 731.091 1308.901 C 731.623 1308.938 731.792 1309.343 732.035 1309.745 C 732.282 1310.166 732.917 1310.482 732.583 1310.871 C 732.393 1311.099 732.036 1310.736 731.851 1310.516 C 731.409 1310.003 731.26 1309.639 730.923 1309.064 L 730.923 1309.064 Z " fill-rule="evenodd" fill="rgb(240,240,240)"/><path d=" M 705.335 1312.121 C 705.371 1312.196 705.394 1312.237 705.407 1312.319 C 704.926 1312.473 704.715 1312.771 704.203 1312.806 C 704.148 1312.346 704.798 1312.158 705.335 1312.121 L 705.335 1312.121 Z " fill-rule="evenodd" fill="rgb(240,240,240)"/><radialGradient id="_rgradient_11" fx="50.006508818007944%" fy="50.16282842377322%" cx="50.006508818007944%" cy="50.16282842377322%" r="188.54267384576525%"><stop offset="0%" stop-opacity="1" style="stop-color:rgb(242,155,122)"/><stop offset="15.099999%" stop-opacity="1" style="stop-color:rgb(239,132,97)"/><stop offset="50%" stop-opacity="1" style="stop-color:rgb(231,80,53)"/><stop offset="72.439998%" stop-opacity="1" style="stop-color:rgb(216,53,42)"/><stop offset="100%" stop-opacity="1" style="stop-color:rgb(201,17,34)"/></radialGradient><path d=" M 702.282 1312.381 C 702.865 1312.58 703.184 1312.937 703.301 1313.473 C 702.664 1313.517 702.158 1312.919 702.282 1312.381 L 702.282 1312.381 Z " fill-rule="evenodd" fill="url(#_rgradient_11)"/><path d=" M 736.355 1310.813 C 736.396 1311.41 736.363 1311.987 735.749 1312.271 C 734.931 1312.643 734.321 1312.42 733.399 1312.483 C 732.688 1312.531 732.256 1312.896 731.93 1313.441 C 731.628 1313.954 732.24 1314.537 732.898 1314.638 L 732.908 1314.789 C 732.096 1314.976 731.184 1314.616 731.018 1313.907 C 730.849 1313.186 731.23 1312.699 731.722 1312.091 C 732.484 1311.147 733.668 1311.402 734.962 1311.163 C 735.512 1311.064 735.797 1310.851 736.355 1310.813 L 736.355 1310.813 Z " fill-rule="evenodd" fill="rgb(240,240,240)"/><radialGradient id="_rgradient_12" fx="50.01282719186797%" fy="50.30177057851262%" cx="50.01282719186797%" cy="50.30177057851262%" r="179.2574595702678%"><stop offset="0%" stop-opacity="1" style="stop-color:rgb(242,155,122)"/><stop offset="15.099999%" stop-opacity="1" style="stop-color:rgb(239,132,97)"/><stop offset="50%" stop-opacity="1" style="stop-color:rgb(231,80,53)"/><stop offset="72.439998%" stop-opacity="1" style="stop-color:rgb(216,53,42)"/><stop offset="100%" stop-opacity="1" style="stop-color:rgb(201,17,34)"/></radialGradient><path d=" M 705.046 1313.051 C 705.165 1313.079 705.235 1313.128 705.349 1313.182 C 705.314 1313.215 705.284 1313.229 705.234 1313.239 L 705.262 1313.642 L 704.91 1313.666 C 704.894 1313.428 704.926 1313.268 705.046 1313.051 L 705.046 1313.051 Z " fill-rule="evenodd" fill="url(#_rgradient_12)"/><path d=" M 733.322 1313.044 C 733.959 1313 734.32 1313.834 733.998 1314.31 C 733.391 1314.162 733.313 1313.593 733.322 1313.044 L 733.322 1313.044 Z " fill-rule="evenodd" fill="rgb(240,240,240)"/><path d=" M 719.201 1314.615 C 720.026 1314.587 720.626 1315.04 720.868 1315.712 C 721.126 1315.694 721.441 1315.64 721.439 1315.42 C 721.796 1315.542 721.831 1315.854 722.186 1315.977 C 722.693 1316.15 723.177 1316.545 722.964 1316.98 C 722.615 1317.688 721.141 1317.119 720.802 1316.423 C 721.029 1316.547 721.237 1316.547 721.515 1316.528 C 721.441 1316.103 720.984 1316.004 720.578 1315.781 C 719.949 1315.429 719.58 1315.175 719.201 1314.615 L 719.201 1314.615 Z " fill-rule="evenodd" fill="rgb(240,240,240)"/><path d=" M 718.86 1316.555 C 719.237 1316.53 719.399 1316.859 719.494 1317.17 C 719.736 1317.146 719.849 1316.975 719.941 1316.784 C 720.706 1316.936 721.03 1317.292 721.708 1317.624 C 722.052 1317.79 722.368 1317.655 722.725 1317.808 C 722.479 1318.021 722.439 1318.286 722.114 1318.406 C 720.431 1319.012 718.713 1317.62 717.477 1318.773 C 716.858 1319.346 716.444 1319.638 715.676 1320.058 C 715.35 1320.231 715.027 1320.071 714.683 1320.225 C 714.155 1320.464 713.789 1320.86 713.239 1320.675 C 713.028 1320.61 712.93 1320.46 712.693 1320.462 C 712.742 1320.863 713.156 1321.173 713.622 1321.108 C 714.228 1321.027 714.522 1320.742 715.13 1320.7 C 715.158 1321.11 715.125 1321.514 715.548 1321.682 C 716.208 1321.942 716.72 1321.602 717.441 1321.704 L 717.455 1321.909 L 716.22 1321.993 C 716.262 1322.607 717.328 1322.213 717.966 1322.479 C 718.643 1322.755 718.994 1323.286 718.893 1323.929 C 718.318 1323.666 718.263 1323.142 717.644 1322.955 C 717.208 1322.824 716.071 1323.051 716.483 1323.236 C 716.942 1323.445 717.42 1323.153 717.796 1323.451 C 718.382 1323.907 718.761 1324.482 718.443 1325.124 C 718.206 1324.35 717.689 1323.607 716.748 1323.671 C 716.784 1323.974 717.107 1324.058 717.378 1324.236 C 717.781 1324.507 717.826 1324.837 717.978 1325.255 C 718.242 1325.951 718.367 1326.612 717.752 1327.141 C 717.726 1326.757 717.77 1326.402 717.396 1326.205 C 717.178 1326.095 716.917 1326.252 716.735 1326.096 C 716.494 1325.895 716.46 1325.509 716.107 1325.534 C 716.097 1325.813 716.136 1325.962 716.155 1326.24 C 716.117 1326.209 716.102 1326.187 716.091 1326.14 L 715.796 1326.16 L 715.837 1326.768 C 715.749 1326.672 715.695 1326.612 715.587 1326.531 L 715.41 1326.543 C 715.442 1327.019 715.479 1327.315 715.726 1327.735 C 715.852 1327.94 715.709 1328.217 715.944 1328.326 C 715.696 1328.828 715.01 1328.673 714.384 1328.787 C 714.552 1328.364 715.269 1328.249 715.141 1327.823 C 714.093 1327.894 713.647 1328.736 713.377 1329.612 C 713.302 1329.845 713.494 1330.134 713.24 1330.227 C 712.967 1330.329 712.731 1330.193 712.517 1330.025 C 712.193 1329.761 712.789 1329.343 712.57 1329.008 C 712.002 1329.297 711.859 1329.659 711.337 1330.005 C 710.885 1329.548 711.239 1328.76 711.882 1328.499 C 712.179 1328.386 712.433 1328.539 712.704 1328.395 C 713.171 1328.141 713.236 1327.785 713.518 1327.38 C 713.998 1326.694 713.82 1326.165 713.913 1325.381 C 714 1324.694 714.062 1324.202 713.617 1323.632 C 713.013 1322.867 711.858 1323.588 710.874 1323.216 C 710.334 1323.011 710.098 1322.661 709.973 1322.163 C 709.595 1320.692 711.061 1319.866 710.958 1318.357 L 710.661 1318.377 C 710.497 1319.451 709.539 1320.639 708.318 1320.356 L 708.308 1320.205 C 709.625 1319.957 710.155 1318.96 710.448 1317.834 C 710.748 1316.697 711.619 1316.078 712.896 1315.647 C 713.307 1315.513 713.463 1315.287 713.864 1315.127 C 714.804 1314.748 715.485 1315.118 716.516 1315.048 C 717.243 1314.999 717.655 1315.141 718.36 1315.275 C 718.959 1315.392 718.824 1316.026 718.86 1316.555 L 718.86 1316.555 Z " fill-rule="evenodd" fill="rgb(240,240,240)"/><path d=" M 717.97 1326.012 C 717.468 1325.89 717.51 1325.426 717.141 1325.111 C 716.876 1324.883 716.497 1324.875 716.395 1324.554 C 717.256 1324.28 717.917 1325.235 717.97 1326.012 L 717.97 1326.012 Z " fill-rule="evenodd" fill="rgb(27,23,27)"/><path d=" M 709.403 1327.661 C 710.021 1327.959 710.034 1328.625 709.746 1329.2 L 709.509 1329.217 C 709.536 1328.604 709.13 1328.228 709.403 1327.661 L 709.403 1327.661 Z " fill-rule="evenodd" fill="rgb(240,240,240)"/><path d=" M 710.375 1328.048 C 710.805 1328.17 711.391 1328.397 711.192 1328.749 C 711.041 1329.025 710.758 1329.088 710.457 1329.256 C 710.331 1328.803 710.27 1328.512 710.375 1328.048 L 710.375 1328.048 Z " fill-rule="evenodd" fill="rgb(240,240,240)"/><radialGradient id="_rgradient_13" fx="50.01281863835825%" fy="50.31727432599524%" cx="50.01281863835825%" cy="50.31727432599524%" r="193.8367216971769%"><stop offset="0%" stop-opacity="1" style="stop-color:rgb(242,155,122)"/><stop offset="15.099999%" stop-opacity="1" style="stop-color:rgb(239,132,97)"/><stop offset="50%" stop-opacity="1" style="stop-color:rgb(231,80,53)"/><stop offset="72.439998%" stop-opacity="1" style="stop-color:rgb(216,53,42)"/><stop offset="100%" stop-opacity="1" style="stop-color:rgb(201,17,34)"/></radialGradient><path d=" M 708.8 1328.307 C 708.94 1328.328 709.017 1328.367 709.158 1328.384 C 709.178 1328.674 709.042 1328.842 708.915 1329.108 C 708.758 1329.081 708.664 1329.03 708.496 1329.034 C 708.444 1328.74 708.627 1328.564 708.8 1328.307 L 708.8 1328.307 Z " fill-rule="evenodd" fill="url(#_rgradient_13)"/><radialGradient id="_rgradient_14" fx="50.08051282285351%" fy="50.33497279247996%" cx="50.08051282285351%" cy="50.33497279247996%" r="123.7087933943658%"><stop offset="0%" stop-opacity="1" style="stop-color:rgb(242,155,122)"/><stop offset="15.099999%" stop-opacity="1" style="stop-color:rgb(239,132,97)"/><stop offset="50%" stop-opacity="1" style="stop-color:rgb(231,80,53)"/><stop offset="72.439998%" stop-opacity="1" style="stop-color:rgb(216,53,42)"/><stop offset="100%" stop-opacity="1" style="stop-color:rgb(201,17,34)"/></radialGradient><path d=" M 715.398 1329.02 C 715.476 1329.342 715.39 1329.627 715.104 1329.849 C 715.018 1329.524 715.01 1329.047 715.398 1329.02 L 715.398 1329.02 Z " fill-rule="evenodd" fill="url(#_rgradient_14)"/><path d=" M 710.82 1330.241 C 710.39 1330.284 710.24 1329.94 709.846 1329.801 C 710.121 1329.506 710.685 1329.888 710.82 1330.241 L 710.82 1330.241 Z " fill-rule="evenodd" fill="rgb(240,240,240)"/><radialGradient id="_rgradient_15" fx="50.07616189525379%" fy="50.58727129017768%" cx="50.07616189525379%" cy="50.58727129017768%" r="117.92269914528455%"><stop offset="0%" stop-opacity="1" style="stop-color:rgb(242,155,122)"/><stop offset="15.099999%" stop-opacity="1" style="stop-color:rgb(239,132,97)"/><stop offset="50%" stop-opacity="1" style="stop-color:rgb(231,80,53)"/><stop offset="72.439998%" stop-opacity="1" style="stop-color:rgb(216,53,42)"/><stop offset="100%" stop-opacity="1" style="stop-color:rgb(201,17,34)"/></radialGradient><path d=" M 709.877 1330.255 C 710.018 1330.378 710.067 1330.526 710.026 1330.699 L 709.85 1330.712 C 709.816 1330.544 709.83 1330.422 709.877 1330.255 L 709.877 1330.255 Z " fill-rule="evenodd" fill="url(#_rgradient_15)"/><path d=" M 712.019 1330.514 C 712.53 1330.332 713.468 1331.07 713.021 1331.354 C 712.846 1331.465 712.683 1331.256 712.479 1331.19 C 712.082 1331.058 711.79 1331.237 711.36 1331.213 C 711.391 1330.871 711.647 1330.645 712.019 1330.514 L 712.019 1330.514 Z " fill-rule="evenodd" fill="rgb(240,240,240)"/><radialGradient id="_rgradient_16" fx="50.18688372204565%" fy="50.41760474308319%" cx="50.18688372204565%" cy="50.41760474308319%" r="86.78510879796603%"><stop offset="0%" stop-opacity="1" style="stop-color:rgb(242,155,122)"/><stop offset="15.099999%" stop-opacity="1" style="stop-color:rgb(239,132,97)"/><stop offset="50%" stop-opacity="1" style="stop-color:rgb(231,80,53)"/><stop offset="72.439998%" stop-opacity="1" style="stop-color:rgb(216,53,42)"/><stop offset="100%" stop-opacity="1" style="stop-color:rgb(201,17,34)"/></radialGradient><path d=" M 712.105 1331.771 C 712.327 1331.983 712.3 1332.237 712.218 1332.522 C 712.008 1332.291 711.972 1332.045 712.105 1331.771 L 712.105 1331.771 Z " fill-rule="evenodd" fill="url(#_rgradient_16)"/><path d=" M 720.839 1332.54 C 721.29 1332.386 721.625 1333.078 721.431 1333.46 C 721.327 1333.661 721.178 1333.749 721.05 1333.94 C 720.554 1333.61 720.237 1332.737 720.839 1332.54 L 720.839 1332.54 Z " fill-rule="evenodd" fill="rgb(240,240,240)"/><radialGradient id="_rgradient_17" fx="50.17614433045594%" fy="50.43172134629117%" cx="50.17614433045594%" cy="50.43172134629117%" r="159.0915020697372%"><stop offset="0%" stop-opacity="1" style="stop-color:rgb(242,155,122)"/><stop offset="15.099999%" stop-opacity="1" style="stop-color:rgb(239,132,97)"/><stop offset="50%" stop-opacity="1" style="stop-color:rgb(231,80,53)"/><stop offset="72.439998%" stop-opacity="1" style="stop-color:rgb(216,53,42)"/><stop offset="100%" stop-opacity="1" style="stop-color:rgb(201,17,34)"/></radialGradient><path d=" M 726.176 1332.933 C 726.223 1332.986 726.286 1333.013 726.36 1333.022 C 726.372 1333.203 726.307 1333.328 726.214 1333.486 L 726.036 1333.498 C 725.978 1333.287 726.049 1333.124 726.176 1332.933 L 726.176 1332.933 Z " fill-rule="evenodd" fill="url(#_rgradient_17)"/><radialGradient id="_rgradient_18" fx="50.191743793740784%" fy="50.63586832599185%" cx="50.191743793740784%" cy="50.63586832599185%" r="147.35141558622817%"><stop offset="0%" stop-opacity="1" style="stop-color:rgb(242,155,122)"/><stop offset="15.099999%" stop-opacity="1" style="stop-color:rgb(239,132,97)"/><stop offset="50%" stop-opacity="1" style="stop-color:rgb(231,80,53)"/><stop offset="72.439998%" stop-opacity="1" style="stop-color:rgb(216,53,42)"/><stop offset="100%" stop-opacity="1" style="stop-color:rgb(201,17,34)"/></radialGradient><path d=" M 720.131 1333.447 C 720.187 1333.613 720.201 1333.726 720.162 1333.899 L 719.927 1333.915 C 719.906 1333.727 719.954 1333.561 720.131 1333.447 L 720.131 1333.447 Z " fill-rule="evenodd" fill="url(#_rgradient_18)"/><radialGradient id="_rgradient_19" fx="50.093951823579275%" fy="50.464506303815426%" cx="50.093951823579275%" cy="50.464506303815426%" r="279.9411283094852%"><stop offset="0%" stop-opacity="1" style="stop-color:rgb(242,155,122)"/><stop offset="15.099999%" stop-opacity="1" style="stop-color:rgb(239,132,97)"/><stop offset="50%" stop-opacity="1" style="stop-color:rgb(231,80,53)"/><stop offset="72.439998%" stop-opacity="1" style="stop-color:rgb(216,53,42)"/><stop offset="100%" stop-opacity="1" style="stop-color:rgb(201,17,34)"/></radialGradient><path d=" M 724.281 1334.578 C 723.827 1334.659 723.57 1334.872 723.118 1334.809 C 723.141 1334.512 723.466 1334.411 723.726 1334.212 C 723.985 1334.258 724.248 1334.348 724.281 1334.578 L 724.281 1334.578 Z " fill-rule="evenodd" fill="url(#_rgradient_19)"/><radialGradient id="_rgradient_20" fx="50.25263713804975%" fy="50.472003603601934%" cx="50.25263713804975%" cy="50.472003603601934%" r="130.25477730521203%"><stop offset="0%" stop-opacity="1" style="stop-color:rgb(242,155,122)"/><stop offset="15.099999%" stop-opacity="1" style="stop-color:rgb(239,132,97)"/><stop offset="50%" stop-opacity="1" style="stop-color:rgb(231,80,53)"/><stop offset="72.439998%" stop-opacity="1" style="stop-color:rgb(216,53,42)"/><stop offset="100%" stop-opacity="1" style="stop-color:rgb(201,17,34)"/></radialGradient><path d=" M 721.403 1335.633 C 721.653 1335.649 721.711 1335.971 721.616 1336.173 C 721.394 1336.076 721.305 1335.838 721.403 1335.633 L 721.403 1335.633 Z " fill-rule="evenodd" fill="url(#_rgradient_20)"/></g><g id="Herzogshut"><path d=" M 731.855 1285.303 L 730.893 1273.619 L 730.2 1271.73 C 730.173 1271.71 729.848 1267.044 717.985 1269.659 C 717.352 1269.215 716.562 1269.063 715.729 1269.12 C 715.025 1269.168 714.024 1269.731 714.024 1269.731 C 702.01 1268.525 702.067 1273.817 702.041 1273.84 L 701.54 1275.677 L 701.787 1287.348 L 731.855 1285.303 Z " fill="rgb(240,240,240)" vector-effect="non-scaling-stroke" stroke-width="0.396" stroke="rgb(27,23,27)" stroke-linejoin="miter" stroke-linecap="butt" stroke-miterlimit="2.61310005"/><path d=" M 717.192 1269.29 L 717.664 1269.505 C 717.664 1269.505 718.088 1269.729 718.098 1269.689 C 718.108 1269.646 718.884 1269.494 718.965 1269.451 C 719.045 1269.406 720.031 1269.277 720.078 1269.269 C 720.125 1269.261 721.197 1269.121 721.197 1269.121 L 722.244 1269.015 L 723.051 1268.925 C 723.051 1268.925 724.162 1268.889 724.21 1268.881 C 724.257 1268.875 725.556 1268.967 725.556 1268.967 L 726.552 1269.112 C 726.552 1269.112 727.54 1269.332 727.59 1269.324 C 727.636 1269.316 728.675 1269.777 728.675 1269.777 L 729.571 1270.456 L 730.198 1271.403 C 730.198 1271.403 730.797 1273.714 730.816 1273.762 C 730.835 1273.808 729.863 1273.763 729.863 1273.763 L 729.142 1274.017 L 728.162 1274.119 L 727.196 1273.9 L 726.392 1273.999 C 726.392 1273.999 725.659 1274.292 725.634 1274.291 C 725.612 1274.285 724.602 1274.121 724.602 1274.121 L 723.797 1274.176 L 722.758 1274.452 L 721.882 1274.307 C 721.882 1274.307 720.971 1274.295 720.983 1274.289 C 720.997 1274.285 720.298 1274.583 720.298 1274.583 C 720.298 1274.583 719.562 1274.779 719.503 1274.778 C 719.446 1274.778 718.697 1274.524 718.71 1274.523 C 718.724 1274.522 717.964 1274.458 717.964 1274.458 C 717.964 1274.458 717.434 1274.61 717.413 1274.611 C 717.391 1274.613 717.192 1269.29 717.192 1269.29 L 717.192 1269.29 Z " fill-rule="evenodd" fill="rgb(216,30,5)"/><path d=" M 701.976 1273.541 L 702.31 1272.775 C 702.31 1272.775 702.945 1271.925 702.99 1271.882 C 703.035 1271.837 703.437 1271.396 703.518 1271.354 C 703.597 1271.304 704.346 1270.77 704.36 1270.799 C 704.377 1270.83 705.457 1270.338 705.457 1270.338 L 706.558 1269.98 C 706.558 1269.98 707.658 1269.767 707.709 1269.761 C 707.756 1269.753 708.954 1269.643 709.036 1269.633 C 709.12 1269.622 710.54 1269.605 710.586 1269.599 C 710.635 1269.591 711.809 1269.627 711.857 1269.619 C 711.904 1269.611 712.777 1269.66 712.777 1269.66 L 713.976 1269.685 L 714.659 1269.359 L 715.104 1274.905 L 714.43 1274.815 C 714.43 1274.815 713.688 1274.935 713.631 1274.968 C 713.576 1275.002 712.553 1275.183 712.553 1275.183 L 711.514 1274.934 L 710.716 1275.132 L 709.927 1275.397 C 709.927 1275.397 709.235 1275.273 709.215 1275.307 C 709.193 1275.335 708.041 1275.171 708.041 1275.171 C 708.041 1275.171 707.131 1275.417 707.144 1275.448 C 707.159 1275.474 706.173 1275.378 706.153 1275.379 C 706.133 1275.381 705.086 1275.45 705.096 1275.407 C 705.108 1275.369 703.745 1275.927 703.792 1275.887 C 703.836 1275.842 703.039 1275.691 703.039 1275.691 L 702.149 1275.573 L 701.54 1275.676 L 701.976 1273.541 L 701.976 1273.541 Z " fill-rule="evenodd" fill="rgb(216,30,5)"/><path d=" M 701.679 1275.684 C 701.701 1275.683 701.823 1275.36 702.651 1275.549 C 703.477 1275.735 703.545 1275.971 704.34 1275.686 C 705.133 1275.399 705.302 1275.235 706.094 1275.383 C 706.886 1275.537 706.84 1275.506 707.391 1275.384 C 707.943 1275.257 708.203 1275.037 708.867 1275.194 C 709.535 1275.357 709.625 1275.462 710.268 1275.282 C 710.912 1275.1 711.026 1274.834 711.795 1274.99 C 712.562 1275.15 712.493 1275.252 713.231 1275.048 C 713.966 1274.847 714.536 1274.682 715.046 1274.885 M 717.467 1274.608 C 717.488 1274.607 717.614 1274.284 718.439 1274.472 C 719.265 1274.658 719.336 1274.894 720.126 1274.61 C 720.923 1274.323 721.09 1274.158 721.882 1274.307 C 722.675 1274.461 722.629 1274.429 723.179 1274.308 C 723.733 1274.181 723.99 1273.96 724.657 1274.118 C 725.321 1274.281 725.414 1274.385 726.056 1274.205 C 726.698 1274.023 726.815 1273.758 727.582 1273.913 C 728.351 1274.074 728.282 1274.175 729.018 1273.971 C 729.755 1273.77 730.325 1273.605 730.835 1273.808 M 730.853 1285.372 L 728.603 1277.502 L 727.132 1285.625 L 725.606 1285.729 L 721.679 1276.865 L 718.79 1286.194 L 715.121 1286.444 L 710.772 1277.609 L 708.07 1286.925 L 706.304 1287.045 L 703.893 1279.187 L 702.768 1287.286 L 701.788 1287.353 L 703.551 1275.604 L 707.178 1286.122 L 710.503 1275.155 L 715.62 1284.954 L 718.21 1284.778 L 721.459 1274.368 L 726.292 1284.818 L 728.456 1273.906 L 731.855 1285.303 L 730.853 1285.372 Z " fill="rgb(231,187,58)" vector-effect="non-scaling-stroke" stroke-width="0.397" stroke="rgb(27,23,27)" stroke-linejoin="miter" stroke-linecap="butt" stroke-miterlimit="2.61310005"/><path d=" M 714.603 1269.504 L 715.752 1286.401 L 718.321 1286.226 L 717.157 1269.213" fill="rgb(240,240,240)" vector-effect="non-scaling-stroke" stroke-width="0.396" stroke="rgb(27,23,27)" stroke-linejoin="miter" stroke-linecap="butt" stroke-miterlimit="2.61310005"/><path d=" M 715.266 1269.286 L 716.446 1269.206 L 717.598 1286.106 L 716.418 1286.186 L 715.266 1269.286 L 715.266 1269.286 Z " fill-rule="evenodd" fill="rgb(27,23,27)"/><path d=" M 701.69 1283.214 L 703.529 1282.38 L 703.466 1283.033 L 704.103 1282.883 C 704.103 1282.883 704.032 1283.408 704.088 1283.429 C 704.141 1283.447 704.857 1283.617 704.857 1283.617 C 704.857 1283.617 704.258 1284.313 701.79 1285.482 L 701.69 1283.214 L 701.69 1283.214 Z " fill-rule="evenodd" fill="rgb(27,23,27)"/><path d=" M 708.393 1282.21 C 708.498 1282.173 710.563 1281.465 710.563 1281.465 L 710.514 1282.337 L 710.937 1282.2 C 710.937 1282.2 710.872 1282.831 710.872 1282.855 C 710.874 1282.88 711.253 1282.883 711.253 1282.883 C 711.253 1282.883 708.957 1284.916 707.168 1285.711 C 707.168 1285.711 708.288 1282.249 708.393 1282.21 L 708.393 1282.21 Z " fill-rule="evenodd" fill="rgb(27,23,27)"/><path d=" M 723.977 1282.016 C 723.873 1282.045 721.984 1281.392 721.984 1281.392 C 720.978 1280.943 721.755 1281.952 721.755 1281.952 L 720.93 1281.788 C 720.93 1281.788 721.077 1282.352 721.025 1282.381 C 720.969 1282.407 720.485 1282.417 720.485 1282.417 C 720.485 1282.417 720.42 1284.622 724.776 1284.187 C 724.776 1284.187 724.087 1281.986 723.977 1282.016 L 723.977 1282.016 Z " fill-rule="evenodd" fill="rgb(27,23,27)"/><path d=" M 727.934 1281.259 L 729.814 1281.021 L 730.067 1281.546 C 730.067 1281.546 730.931 1281.52 730.936 1281.598 C 730.941 1281.675 730.359 1282.665 730.359 1282.665 L 731.202 1283.098 C 731.202 1283.098 730.422 1284.374 727.709 1282.685 L 727.934 1281.259 L 727.934 1281.259 Z " fill-rule="evenodd" fill="rgb(27,23,27)"/><path d=" M 716.692 1284.703 C 716.684 1284.59 716.771 1284.493 716.886 1284.485 C 716.998 1284.477 717.097 1284.562 717.105 1284.675 C 717.113 1284.791 717.026 1284.891 716.914 1284.899 C 716.8 1284.907 716.7 1284.819 716.692 1284.703 L 716.692 1284.703 Z  M 716.61 1283.506 C 716.618 1283.622 716.718 1283.706 716.832 1283.699 C 716.944 1283.691 717.031 1283.593 717.024 1283.478 C 717.016 1283.362 716.916 1283.275 716.804 1283.282 C 716.69 1283.29 716.602 1283.39 716.61 1283.506 L 716.61 1283.506 Z  M 716.528 1282.303 C 716.536 1282.419 716.636 1282.507 716.751 1282.499 C 716.863 1282.491 716.949 1282.391 716.942 1282.275 C 716.934 1282.164 716.834 1282.077 716.722 1282.085 C 716.608 1282.093 716.52 1282.193 716.528 1282.303 L 716.528 1282.303 Z  M 716.446 1281.106 C 716.454 1281.217 716.554 1281.304 716.669 1281.296 C 716.781 1281.289 716.868 1281.189 716.86 1281.078 C 716.852 1280.962 716.752 1280.877 716.641 1280.885 C 716.526 1280.893 716.438 1280.99 716.446 1281.106 L 716.446 1281.106 Z  M 716.364 1279.904 C 716.372 1280.02 716.472 1280.107 716.587 1280.099 C 716.699 1280.091 716.786 1279.991 716.778 1279.875 C 716.77 1279.765 716.67 1279.675 716.559 1279.683 C 716.444 1279.69 716.357 1279.793 716.364 1279.904 L 716.364 1279.904 Z  M 716.283 1278.706 C 716.29 1278.82 716.391 1278.907 716.505 1278.899 C 716.617 1278.891 716.704 1278.791 716.696 1278.678 C 716.688 1278.562 716.589 1278.475 716.477 1278.483 C 716.362 1278.491 716.275 1278.59 716.283 1278.706 L 716.283 1278.706 Z  M 716.201 1277.504 C 716.209 1277.62 716.309 1277.707 716.423 1277.699 C 716.535 1277.692 716.622 1277.592 716.614 1277.476 C 716.607 1277.365 716.507 1277.275 716.395 1277.283 C 716.28 1277.291 716.193 1277.393 716.201 1277.504 L 716.201 1277.504 Z  M 716.119 1276.307 C 716.127 1276.423 716.227 1276.507 716.342 1276.5 C 716.454 1276.492 716.541 1276.394 716.533 1276.278 C 716.525 1276.163 716.425 1276.075 716.313 1276.083 C 716.199 1276.091 716.111 1276.191 716.119 1276.307 L 716.119 1276.307 Z  M 716.037 1275.104 C 716.045 1275.22 716.145 1275.307 716.26 1275.299 C 716.372 1275.292 716.459 1275.192 716.451 1275.076 C 716.443 1274.963 716.343 1274.875 716.231 1274.883 C 716.117 1274.891 716.029 1274.991 716.037 1275.104 L 716.037 1275.104 Z  M 715.955 1273.904 C 715.963 1274.02 716.063 1274.107 716.178 1274.099 C 716.29 1274.092 716.377 1273.992 716.369 1273.876 C 716.361 1273.763 716.261 1273.676 716.15 1273.683 C 716.035 1273.691 715.948 1273.791 715.955 1273.904 L 715.955 1273.904 Z  M 715.874 1272.707 C 715.881 1272.82 715.981 1272.905 716.096 1272.897 C 716.208 1272.889 716.295 1272.792 716.287 1272.679 C 716.279 1272.563 716.18 1272.475 716.068 1272.483 C 715.953 1272.491 715.866 1272.591 715.874 1272.707 L 715.874 1272.707 Z  M 715.792 1271.504 C 715.8 1271.62 715.9 1271.707 716.014 1271.699 C 716.126 1271.692 716.213 1271.592 716.205 1271.476 C 716.198 1271.363 716.098 1271.278 715.986 1271.286 C 715.872 1271.294 715.784 1271.391 715.792 1271.504 L 715.792 1271.504 Z  M 715.71 1270.304 C 715.718 1270.418 715.818 1270.505 715.932 1270.497 C 716.044 1270.49 716.131 1270.39 716.124 1270.276 C 716.116 1270.16 716.016 1270.076 715.904 1270.083 C 715.79 1270.091 715.702 1270.189 715.71 1270.304 L 715.71 1270.304 Z " fill-rule="evenodd" fill="rgb(231,187,58)"/><path d=" M 709.125 1273.902 C 709.077 1273.205 709.603 1272.602 710.3 1272.555 C 710.997 1272.507 711.599 1273.033 711.646 1273.73 C 711.694 1274.43 711.169 1275.033 710.472 1275.08 C 709.775 1275.127 709.172 1274.602 709.125 1273.902 L 709.125 1273.902 Z " fill-rule="evenodd" fill="rgb(231,187,58)" vector-effect="non-scaling-stroke" stroke-width="0.397" stroke="rgb(27,23,27)" stroke-linejoin="miter" stroke-linecap="butt" stroke-miterlimit="2.61310005"/><path d=" M 720.072 1273.096 C 720.025 1272.397 720.55 1271.791 721.245 1271.744 C 721.943 1271.696 722.546 1272.225 722.594 1272.925 C 722.641 1273.619 722.116 1274.224 721.417 1274.272 C 720.723 1274.319 720.12 1273.791 720.072 1273.096 L 720.072 1273.096 Z " fill-rule="evenodd" fill="rgb(231,187,58)" vector-effect="non-scaling-stroke" stroke-width="0.397" stroke="rgb(27,23,27)" stroke-linejoin="miter" stroke-linecap="butt" stroke-miterlimit="2.61310005"/><path d=" M 702.606 1274.394 C 702.56 1273.718 702.945 1273.145 703.465 1273.11 C 703.986 1273.074 704.448 1273.59 704.494 1274.265 C 704.54 1274.937 704.152 1275.511 703.631 1275.546 C 703.111 1275.582 702.652 1275.066 702.606 1274.394 L 702.606 1274.394 Z " fill-rule="evenodd" fill="rgb(231,187,58)" vector-effect="non-scaling-stroke" stroke-width="0.397" stroke="rgb(27,23,27)" stroke-linejoin="miter" stroke-linecap="butt" stroke-miterlimit="2.61310005"/><path d=" M 727.609 1272.689 C 727.563 1272.014 727.947 1271.441 728.471 1271.405 C 728.988 1271.37 729.449 1271.885 729.495 1272.56 C 729.541 1273.233 729.154 1273.806 728.637 1273.841 C 728.113 1273.877 727.655 1273.362 727.609 1272.689 L 727.609 1272.689 Z " fill-rule="evenodd" fill="rgb(231,187,58)" vector-effect="non-scaling-stroke" stroke-width="0.397" stroke="rgb(27,23,27)" stroke-linejoin="miter" stroke-linecap="butt" stroke-miterlimit="2.61310005"/><path d=" M 730.086 1272.497 C 730.04 1271.813 730.275 1271.24 730.613 1271.217 C 730.952 1271.194 731.264 1271.729 731.311 1272.414 C 731.357 1273.099 731.121 1273.672 730.782 1273.695 C 730.444 1273.718 730.133 1273.183 730.086 1272.497 L 730.086 1272.497 Z " fill-rule="evenodd" fill="rgb(231,187,58)" vector-effect="non-scaling-stroke" stroke-width="0.397" stroke="rgb(27,23,27)" stroke-linejoin="miter" stroke-linecap="butt" stroke-miterlimit="2.61310005"/><path d=" M 700.91 1274.487 C 700.863 1273.802 701.101 1273.229 701.441 1273.206 C 701.781 1273.182 702.091 1273.718 702.137 1274.403 C 702.184 1275.088 701.95 1275.661 701.61 1275.684 C 701.27 1275.707 700.956 1275.172 700.91 1274.487 L 700.91 1274.487 Z " fill-rule="evenodd" fill="rgb(231,187,58)" vector-effect="non-scaling-stroke" stroke-width="0.397" stroke="rgb(27,23,27)" stroke-linejoin="miter" stroke-linecap="butt" stroke-miterlimit="2.61310005"/><path d=" M 714.333 1269.549 C 714.659 1269.294 715.194 1269.107 715.809 1269.065 C 716.46 1269.021 717.047 1269.149 717.402 1269.382 C 716.941 1268.911 716.465 1267.755 716.289 1266.515 C 717.321 1266.526 718.207 1266.718 718.738 1267.036 C 718.555 1266.705 718.414 1266.234 718.378 1265.702 C 718.344 1265.206 718.469 1264.72 718.587 1264.378 C 718.112 1264.774 717.251 1265.076 716.216 1265.23 C 716.235 1264.32 716.395 1263.527 716.653 1263 C 716.354 1263.075 715.942 1263.199 715.589 1263.223 C 715.078 1263.258 714.558 1263.182 714.154 1263.103 C 714.511 1263.594 714.796 1264.396 714.939 1265.349 C 713.71 1265.354 712.633 1265.108 712.139 1264.691 C 712.345 1265.021 712.489 1265.529 712.528 1266.1 C 712.57 1266.714 712.535 1267.288 712.358 1267.644 C 712.788 1267.16 713.812 1266.748 715.033 1266.581 C 715.022 1267.859 714.746 1269.029 714.333 1269.549 L 714.333 1269.549 Z " fill-rule="evenodd" fill="rgb(231,187,58)" vector-effect="non-scaling-stroke" stroke-width="0.397" stroke="rgb(27,23,27)" stroke-linejoin="round" stroke-linecap="butt" stroke-miterlimit="2.61310005"/></g></g></g></g></g></g></g></svg>