<?xml version="1.0" standalone="no"?><!-- Generator: Gravit.io --><svg xmlns="http://www.w3.org/2000/svg" xmlns:xlink="http://www.w3.org/1999/xlink" style="isolation:isolate" viewBox="0 268 1024 719.425" width="1024" height="719.425"><g id="Group"><path d=" M 319.785 319.536 C 319.785 319.536 340.296 307.632 351.798 302.485 L 530.682 368.279 L 820.002 376.081 C 820.002 376.081 841.719 398.603 848.153 406.324 L 900.677 557.057 L 943.065 574.028 C 943.065 574.028 952.798 603.145 955.532 614.165 L 946.765 683.66 L 527.384 787.66 L 190.609 705.055 L 191.654 498.019 L 294.609 363.936 L 319.785 319.536 Z " fill="rgb(47,47,47)"/><g id="Group"><g id="Group"><path d=" M 585.538 494.399 C 584.733 535.099 582.481 652.049 583.286 719.935 C 596.718 720.257 611.437 719.533 627.685 717.844 C 649.402 715.672 672.084 711.329 693.962 707.146 L 707.877 704.492 C 730.318 700.229 751.07 694.92 771.339 688.244 C 802.628 677.949 837.214 664.677 868.423 645.454 C 845.499 565.583 804.398 505.66 791.206 487.723 C 702.729 480.725 617.952 490.056 585.538 494.399 Z " fill="rgb(117,127,63)"/><path d=" M 820.726 469.867 C 836.41 491.343 874.053 548.129 898.022 624.46 C 915.557 609.902 930.678 592.528 942.261 572.018 C 931.483 542.016 918.452 512.899 902.848 485.149 C 887.164 457.319 868.905 430.696 848.234 406.244 C 840.593 431.259 828.447 455.711 820.726 469.867 Z " fill="rgb(117,127,63)"/><path d=" M 360.806 358.627 C 395.071 371.738 512.423 418.389 573.07 461.421 C 599.211 457.561 691.227 445.656 790.563 453.217 C 803.432 429.489 816.945 397.638 819.921 376.001 C 818.715 374.794 817.669 373.507 816.463 372.381 C 775.2 333.612 722.918 312.297 670.154 294.441 C 596.477 269.507 516.284 260.739 439.47 274.494 C 409.066 279.963 379.708 289.374 351.798 302.485 L 360.806 358.627 Z " fill="rgb(117,127,63)"/><path d=" M 955.291 614.406 C 939.285 634.917 919.9 651.969 899.148 666.125 C 898.746 666.447 898.264 666.688 897.942 667.01 C 859.816 692.749 817.267 709.318 782.117 720.82 C 760.4 727.978 738.281 733.689 714.312 738.194 L 700.397 740.848 C 677.715 745.191 654.389 749.696 631.144 752.109 C 617.389 753.476 603.313 754.602 589.077 754.602 C 546.608 754.602 503.978 744.628 472.85 702.079 C 460.302 684.786 446.307 670.227 431.427 658.806 L 425.233 653.979 C 415.823 646.499 398.208 632.504 389.119 632.262 L 390.004 597.917 C 410.595 598.48 431.427 614.969 446.629 627.034 L 452.259 631.458 C 469.713 644.81 486.041 661.701 500.6 681.729 C 513.71 699.666 529.717 709.881 548.94 715.27 C 548.297 642.719 550.629 522.068 551.353 488.125 C 492.476 446.943 374.078 400.292 345.845 389.514 C 334.746 396.351 306.111 420.159 272.41 454.504 C 269.031 457.963 264.527 459.652 260.103 459.652 C 255.76 459.652 251.416 458.043 248.119 454.745 C 241.362 448.15 241.201 437.291 247.877 430.454 C 269.192 408.818 302.974 376.081 326.622 361.442 L 319.785 319.456 C 262.194 353.882 205.328 407.29 171.144 469.384 C 136.879 531.399 125.296 601.939 157.952 670.227 C 168.65 692.346 190.126 729.507 211.682 742.376 C 230.745 753.798 250.934 763.53 271.525 772.056 C 289.783 779.617 305.226 789.108 323.967 794.577 C 340.698 799.564 357.991 804.953 374.962 808.734 C 392.095 812.595 409.871 813.801 427.083 817.018 C 442.366 819.834 457.809 822.408 473.252 822.649 C 552.479 823.694 632.591 827.877 710.371 809.056 C 757.666 797.634 804.558 783.397 849.038 763.771 C 871.56 753.958 893.518 742.698 914.189 729.507 C 931 718.889 953.119 708.433 961.887 689.451 C 971.136 669.423 963.254 645.212 958.348 624.943 C 957.463 621.565 956.256 617.945 955.291 614.406 Z " fill="rgb(117,127,63)"/></g><g id="Group"><path d=" M 238.145 806.482 C 230.262 801.817 219.002 800.208 203.719 798.036 C 183.611 795.221 161.733 789.591 141.624 793.21 C 124.331 796.347 122.481 800.771 116.851 816.777 C 108.084 841.953 82.586 917.4 102.373 941.208 C 107.279 947.08 118.701 949.171 125.699 951.262 C 145.887 957.375 167.363 958.743 188.598 960.19 C 206.695 961.397 224.552 958.099 241.845 953.273 C 254.795 949.654 260.505 946.597 261.551 932.28 C 263.884 901.715 257.047 871.552 254.312 841.229 C 252.382 821.603 247.556 811.951 238.145 806.482 Z " fill="rgb(189,207,70)"/><g id="Group"><path d=" M 936.55 715.833 C 929.07 720.82 921.107 725.244 914.109 729.668 C 893.438 742.778 871.479 754.039 848.958 763.932 C 804.478 783.558 757.585 797.795 710.29 809.216 C 632.511 828.038 552.399 823.855 473.172 822.81 C 457.648 822.568 442.205 819.995 427.003 817.179 C 422.74 816.375 418.557 815.732 414.294 815.088 L 418.477 859.729 C 418.477 859.729 433.599 860.855 460.624 859.166 C 455.396 910.885 453.707 966.705 466.898 977.323 C 472.85 982.149 485.478 983.033 493.2 984.32 C 515.882 988.101 539.369 987.538 562.695 987.136 C 582.562 986.814 601.705 982.47 620.044 976.84 C 633.798 972.658 639.75 969.601 639.509 956.973 C 639.267 940.806 633.798 888.846 628.248 844.366 C 679.243 837.69 742.062 825.062 798.848 801.495 C 799.652 819.351 800.376 834.633 800.295 837.77 C 799.813 850.077 799.652 866.887 810.511 876.378 C 840.754 903.002 915.637 887.478 950.385 875.896 C 976.284 867.37 968.321 837.207 963.174 819.592 C 960.198 809.056 948.213 754.2 936.55 715.833 Z " fill="rgb(189,207,70)"/><path d=" M 1019.316 532.283 C 1005.803 519.575 983.604 535.983 971.217 542.579 C 960.117 548.531 949.098 554.403 937.837 559.953 C 945.961 581.267 953.039 602.985 958.348 625.184 C 960.761 635.078 963.817 645.936 965.345 656.795 C 965.747 656.312 966.15 655.829 966.552 655.427 C 970.654 650.762 974.354 646.017 977.973 640.949 C 992.049 621.002 1002.747 598.963 1014.249 577.568 C 1019.799 566.87 1030.014 542.418 1019.316 532.283 Z " fill="rgb(189,207,70)"/></g><g id="Group"><g id="Group"><path d=" M 418.557 859.729 C 409.468 860.05 400.299 859.97 390.888 859.97 C 323.887 859.97 260.023 858.2 194.067 843.24 C 93.927 820.638 15.907 760.715 2.313 653.497 C -6.052 587.461 7.3 509.199 58.295 462.95 C 106.153 419.515 192.217 407.531 251.175 427.559 C 319.865 451.045 369.895 507.51 398.449 572.661 C 420.407 622.852 435.288 667.895 444.538 722.026 C 445.905 730.311 461.107 855.546 443.331 857.879 C 435.127 858.924 426.842 859.487 418.557 859.729 Z " fill="rgb(189,207,70)"/></g><g id="Group"><g id="blobowomouth"><path d=" M 110.387 640.87 C 117.9 665.136 128.972 684.538 143.943 698.59 C 157.124 682.513 169.268 666.539 180.318 650.673 C 193.378 667.85 209.378 682.611 226.094 696.784 L 265.164 647.773" fill-rule="evenodd" fill="none" vector-effect="non-scaling-stroke" stroke-width="16.807" stroke="rgb(47,47,47)" stroke-linejoin="round" stroke-linecap="round" stroke-miterlimit="1.41421"/></g></g><g id="LEFT FACING EYES"><path d=" M 76.515 541.101 C 84.391 520.923 104.481 509.788 121.344 516.167 C 138.125 522.597 145.443 544.115 137.568 564.293 C 129.693 584.471 109.683 595.556 92.774 589.138 C 75.997 582.751 68.675 561.191 76.515 541.101 Z " fill="rgb(47,47,47)"/><path d=" M 306.821 570.93 C 304.177 592.899 287.173 609.072 268.735 607.003 C 250.208 604.899 237.409 585.392 239.959 563.346 C 242.595 541.292 259.646 525.158 278.088 527.269 C 296.483 529.342 309.41 548.838 306.821 570.93 Z " fill="rgb(47,47,47)"/></g></g></g></g></g></svg>