<?xml version="1.0" standalone="no"?><!-- Generator: Gravit.io --><svg xmlns="http://www.w3.org/2000/svg" xmlns:xlink="http://www.w3.org/1999/xlink" style="isolation:isolate" viewBox="484 489 1024 1024" width="1024" height="1024"><clipPath id="_clipPath_QN9Q2Ffq1ONdhphqzHwxRmDmxnb032CJ"><rect x="484" y="489" width="1024" height="1024" transform="matrix(1,0,0,1,0,0)" fill="rgb(255,255,255)"/></clipPath><g clip-path="url(#_clipPath_QN9Q2Ffq1ONdhphqzHwxRmDmxnb032CJ)"><g id="Group"><path d=" M 803.785 808.536 C 803.785 808.536 824.296 796.632 835.798 791.485 L 1014.682 857.279 L 1304.002 865.081 C 1304.002 865.081 1325.719 887.603 1332.153 895.324 L 1384.677 1046.057 L 1427.065 1063.028 C 1427.065 1063.028 1436.798 1092.145 1439.532 1103.165 L 1430.765 1172.66 L 1011.384 1276.66 L 674.609 1194.055 L 675.654 987.019 L 778.609 852.936 L 803.785 808.536 Z " fill="rgb(47,47,47)"/><g id="Group"><g id="Group"><path d=" M 1069.538 983.399 C 1068.733 1024.099 1066.481 1141.049 1067.286 1208.935 C 1080.718 1209.257 1095.437 1208.533 1111.685 1206.844 C 1133.402 1204.672 1156.084 1200.329 1177.962 1196.146 L 1191.877 1193.492 C 1214.318 1189.229 1235.07 1183.92 1255.339 1177.244 C 1286.628 1166.949 1321.214 1153.677 1352.423 1134.454 C 1329.499 1054.583 1288.398 994.66 1275.206 976.723 C 1186.729 969.725 1101.952 979.056 1069.538 983.399 Z " fill="rgb(117,127,63)"/><path d=" M 1304.726 958.867 C 1320.41 980.343 1358.053 1037.129 1382.022 1113.46 C 1399.557 1098.902 1414.678 1081.528 1426.261 1061.018 C 1415.483 1031.016 1402.452 1001.899 1386.848 974.149 C 1371.164 946.319 1352.905 919.696 1332.234 895.244 C 1324.593 920.259 1312.447 944.711 1304.726 958.867 Z " fill="rgb(117,127,63)"/><path d=" M 844.806 847.627 C 879.071 860.738 996.423 907.389 1057.07 950.421 C 1083.211 946.561 1175.227 934.656 1274.563 942.217 C 1287.432 918.489 1300.945 886.638 1303.921 865.001 C 1302.715 863.794 1301.669 862.507 1300.463 861.381 C 1259.2 822.612 1206.918 801.297 1154.154 783.441 C 1080.477 758.507 1000.284 749.739 923.47 763.494 C 893.066 768.963 863.708 778.374 835.798 791.485 L 844.806 847.627 Z " fill="rgb(117,127,63)"/><path d=" M 1439.291 1103.406 C 1423.285 1123.917 1403.9 1140.969 1383.148 1155.125 C 1382.746 1155.447 1382.264 1155.688 1381.942 1156.01 C 1343.816 1181.749 1301.267 1198.318 1266.117 1209.82 C 1244.4 1216.978 1222.281 1222.689 1198.312 1227.194 L 1184.397 1229.848 C 1161.715 1234.191 1138.389 1238.696 1115.144 1241.109 C 1101.389 1242.476 1087.313 1243.602 1073.077 1243.602 C 1030.608 1243.602 987.978 1233.628 956.85 1191.079 C 944.302 1173.786 930.307 1159.227 915.427 1147.806 L 909.233 1142.979 C 899.823 1135.499 882.208 1121.504 873.119 1121.262 L 874.004 1086.917 C 894.595 1087.48 915.427 1103.969 930.629 1116.034 L 936.259 1120.458 C 953.713 1133.81 970.041 1150.701 984.6 1170.729 C 997.71 1188.666 1013.717 1198.881 1032.94 1204.27 C 1032.297 1131.719 1034.629 1011.068 1035.353 977.125 C 976.476 935.943 858.078 889.292 829.845 878.514 C 818.746 885.351 790.111 909.159 756.41 943.504 C 753.031 946.963 748.527 948.652 744.103 948.652 C 739.76 948.652 735.416 947.043 732.119 943.745 C 725.362 937.15 725.201 926.291 731.877 919.454 C 753.192 897.818 786.974 865.081 810.622 850.442 L 803.785 808.456 C 746.194 842.882 689.328 896.29 655.144 958.384 C 620.879 1020.399 609.296 1090.939 641.952 1159.227 C 652.65 1181.346 674.126 1218.507 695.682 1231.376 C 714.745 1242.798 734.934 1252.53 755.525 1261.056 C 773.783 1268.617 789.226 1278.108 807.967 1283.577 C 824.698 1288.564 841.991 1293.953 858.962 1297.734 C 876.095 1301.595 893.871 1302.801 911.083 1306.018 C 926.366 1308.834 941.809 1311.408 957.252 1311.649 C 1036.479 1312.694 1116.591 1316.877 1194.371 1298.056 C 1241.666 1286.634 1288.558 1272.397 1333.038 1252.771 C 1355.56 1242.958 1377.518 1231.698 1398.189 1218.507 C 1415 1207.889 1437.119 1197.433 1445.887 1178.451 C 1455.136 1158.423 1447.254 1134.212 1442.348 1113.943 C 1441.463 1110.565 1440.256 1106.945 1439.291 1103.406 Z " fill="rgb(117,127,63)"/></g><g id="Group"><path d=" M 722.145 1295.482 C 714.262 1290.817 703.002 1289.208 687.719 1287.036 C 667.611 1284.221 645.733 1278.591 625.624 1282.21 C 608.331 1285.347 606.481 1289.771 600.851 1305.777 C 592.084 1330.953 566.586 1406.4 586.373 1430.208 C 591.279 1436.08 602.701 1438.171 609.699 1440.262 C 629.887 1446.375 651.363 1447.743 672.598 1449.19 C 690.695 1450.397 708.552 1447.099 725.845 1442.273 C 738.795 1438.654 744.505 1435.597 745.551 1421.28 C 747.884 1390.715 741.047 1360.552 738.312 1330.229 C 736.382 1310.603 731.556 1300.951 722.145 1295.482 Z " fill="rgb(189,207,70)"/><g id="Group"><path d=" M 1420.55 1204.833 C 1413.07 1209.82 1405.107 1214.244 1398.109 1218.668 C 1377.438 1231.778 1355.479 1243.039 1332.958 1252.932 C 1288.478 1272.558 1241.585 1286.795 1194.29 1298.216 C 1116.511 1317.038 1036.399 1312.855 957.172 1311.81 C 941.648 1311.568 926.205 1308.995 911.003 1306.179 C 906.74 1305.375 902.557 1304.732 898.294 1304.088 L 902.477 1348.729 C 902.477 1348.729 917.599 1349.855 944.624 1348.166 C 939.396 1399.885 937.707 1455.705 950.898 1466.323 C 956.85 1471.149 969.478 1472.033 977.2 1473.32 C 999.882 1477.101 1023.369 1476.538 1046.695 1476.136 C 1066.562 1475.814 1085.705 1471.47 1104.044 1465.84 C 1117.798 1461.658 1123.75 1458.601 1123.509 1445.973 C 1123.267 1429.806 1117.798 1377.846 1112.248 1333.366 C 1163.243 1326.69 1226.062 1314.062 1282.848 1290.495 C 1283.652 1308.351 1284.376 1323.633 1284.295 1326.77 C 1283.813 1339.077 1283.652 1355.887 1294.511 1365.378 C 1324.754 1392.002 1399.637 1376.478 1434.385 1364.896 C 1460.284 1356.37 1452.321 1326.207 1447.174 1308.592 C 1444.198 1298.056 1432.213 1243.2 1420.55 1204.833 Z " fill="rgb(189,207,70)"/><path d=" M 1503.316 1021.283 C 1489.803 1008.575 1467.604 1024.983 1455.217 1031.579 C 1444.117 1037.531 1433.098 1043.403 1421.837 1048.953 C 1429.961 1070.267 1437.039 1091.985 1442.348 1114.184 C 1444.761 1124.078 1447.817 1134.936 1449.345 1145.795 C 1449.747 1145.312 1450.15 1144.829 1450.552 1144.427 C 1454.654 1139.762 1458.354 1135.017 1461.973 1129.949 C 1476.049 1110.002 1486.747 1087.963 1498.249 1066.568 C 1503.799 1055.87 1514.014 1031.418 1503.316 1021.283 Z " fill="rgb(189,207,70)"/></g><g id="Group"><g id="Group"><path d=" M 902.557 1348.729 C 893.468 1349.05 884.299 1348.97 874.888 1348.97 C 807.887 1348.97 744.023 1347.2 678.067 1332.24 C 577.927 1309.638 499.907 1249.715 486.313 1142.497 C 477.948 1076.461 491.3 998.199 542.295 951.95 C 590.153 908.515 676.217 896.531 735.175 916.559 C 803.865 940.045 853.895 996.51 882.449 1061.661 C 904.407 1111.852 919.288 1156.895 928.538 1211.026 C 929.905 1219.311 945.107 1344.546 927.331 1346.879 C 919.127 1347.924 910.842 1348.487 902.557 1348.729 Z " fill="rgb(189,207,70)"/></g><path d=" M 724.558 1014.768 C 744.344 1011.229 763.729 1026.512 767.831 1049.033 C 771.933 1071.474 759.225 1092.708 739.438 1096.328 C 719.732 1099.867 700.347 1084.585 696.165 1062.144 C 692.063 1039.622 704.771 1018.468 724.558 1014.768 Z " fill="rgb(47,47,47)"/><path d=" M 543.502 1044.529 C 549.132 1022.409 569.643 1008.494 589.027 1013.481 C 608.492 1018.468 619.672 1040.507 614.042 1062.626 C 608.331 1084.746 587.982 1098.661 568.517 1093.674 C 549.132 1088.606 537.871 1066.648 543.502 1044.529 Z " fill="rgb(47,47,47)"/><g id="Group"><path d=" M 672.678 1142.014 C 663.509 1147.001 655.626 1152.31 644.929 1148.369 C 638.735 1146.116 632.863 1144.347 627.474 1140.325 C 623.614 1137.51 619.27 1135.177 615.409 1132.362 C 613.399 1130.914 611.468 1129.386 609.457 1127.938 C 607.205 1126.249 606.401 1125.525 603.505 1125.123 C 601.173 1124.882 596.588 1124.721 594.818 1126.651 C 587.258 1135.097 597.875 1147.645 603.586 1153.355 C 612.112 1161.64 624.257 1171.051 635.437 1175.877 C 646.376 1180.622 657.235 1186.333 668.898 1180.542 C 681.687 1174.107 692.787 1164.777 704.047 1156.171 C 711.447 1150.54 728.016 1140.647 725.121 1129.628 C 723.11 1121.584 713.78 1123.273 707.667 1125.204 C 699.945 1127.536 693.028 1131.477 685.869 1135.097 C 681.445 1137.269 677.102 1139.682 672.678 1142.014 Z " fill="rgb(47,47,47)"/></g></g></g></g></g></g></svg>